<svg width="335" height="331" viewBox="0 0 335 331" fill="none" xmlns="http://www.w3.org/2000/svg">
<path d="M169.397 31.031C92.8575 30.0096 30.3722 91.7489 31.406 167.375C32.4267 239.904 92.1967 298.96 165.602 299.969C242.155 301.003 304.627 239.264 303.58 163.638C302.573 91.0959 242.803 32.0396 169.397 31.031ZM252.113 242.593C251.853 242.872 251.533 243.09 251.178 243.233C250.822 243.376 250.439 243.44 250.056 243.42C249.672 243.4 249.298 243.297 248.959 243.119C248.621 242.94 248.326 242.69 248.096 242.386C242.244 234.821 235.077 228.343 226.929 223.257C210.271 212.693 189.163 206.875 167.5 206.875C145.836 206.875 124.728 212.693 108.07 223.257C99.9231 228.341 92.7561 234.816 86.9034 242.38C86.6735 242.683 86.3787 242.934 86.0401 243.112C85.7014 243.291 85.3272 243.394 84.9438 243.413C84.5604 243.433 84.1773 243.369 83.8217 243.226C83.4661 243.083 83.1467 242.865 82.886 242.587C63.6868 222.108 52.8112 195.35 52.3435 167.439C51.277 104.53 103.523 51.8737 167.218 51.7185C230.914 51.5634 282.656 102.668 282.656 165.5C282.678 194.083 271.769 221.62 252.113 242.593Z" fill="white"/>
<path d="M167.5 93.0938C154.597 93.0938 142.931 97.8713 134.641 106.554C126.351 115.236 122.209 127.241 123.145 140.125C125.042 165.5 144.94 186.188 167.5 186.188C190.06 186.188 209.918 165.5 211.855 140.132C212.823 127.37 208.714 115.475 200.287 106.631C191.964 97.9036 180.317 93.0938 167.5 93.0938Z" fill="white"/>
</svg>
