<svg width="178" height="32" viewBox="0 0 178 32" fill="none" xmlns="http://www.w3.org/2000/svg">
<mask id="path-1-outside-1_255_3" maskUnits="userSpaceOnUse" x="0.645996" y="0.248047" width="178" height="31" fill="black">
<rect fill="white" x="0.645996" y="0.248047" width="178" height="31"/>
<path d="M3.04 24.224C2.528 24.224 2.144 24.0534 1.888 23.712C1.65333 23.3707 1.58933 22.8907 1.696 22.272L4.736 3.10405C4.82133 2.54938 5.024 2.13338 5.344 1.85605C5.664 1.57871 6.10133 1.44005 6.656 1.44005H13.376C15.8293 1.44005 17.6853 1.99471 18.944 3.10405C20.2027 4.19205 20.832 5.68538 20.832 7.58405C20.832 9.16271 20.4693 10.4747 19.744 11.52C19.0187 12.5654 18.0267 13.344 16.768 13.856C15.5093 14.368 14.0693 14.6134 12.448 14.592V14.144H13.12C14.08 14.144 14.8693 14.4214 15.488 14.976C16.1067 15.5307 16.608 16.2987 16.992 17.28L18.816 22.08C18.9867 22.528 19.0507 22.912 19.008 23.232C18.9653 23.552 18.816 23.7974 18.56 23.968C18.3253 24.1387 17.9733 24.224 17.504 24.224C17.056 24.224 16.6933 24.1174 16.416 23.904C16.16 23.6694 15.936 23.296 15.744 22.784L13.568 17.056C13.248 16.2027 12.8213 15.5947 12.288 15.232C11.776 14.8694 11.04 14.688 10.08 14.688H6.176L4.96 22.592C4.87466 23.1254 4.672 23.5307 4.352 23.808C4.032 24.0854 3.59466 24.224 3.04 24.224ZM6.592 12.192H12.544C14.144 12.192 15.3813 11.8187 16.256 11.072C17.152 10.304 17.6 9.22671 17.6 7.84005C17.6 6.58138 17.2267 5.64271 16.48 5.02405C15.7333 4.40538 14.56 4.09605 12.96 4.09605H7.872L6.592 12.192Z"/>
<path d="M30.0812 24.288C28.5452 24.288 27.2119 24.0107 26.0812 23.456C24.9719 22.88 24.1079 22.0694 23.4892 21.024C22.8919 19.9787 22.5932 18.7414 22.5932 17.312C22.5932 15.6054 22.9452 14.0587 23.6492 12.672C24.3532 11.2854 25.3346 10.176 26.5932 9.34405C27.8732 8.51205 29.3559 8.09605 31.0412 8.09605C32.2999 8.09605 33.3559 8.32005 34.2092 8.76805C35.0626 9.19471 35.7346 9.78138 36.2252 10.528C36.7159 11.2747 37.0359 12.1174 37.1852 13.056C37.3559 13.9947 37.3879 14.9547 37.2812 15.936C37.2386 16.3414 37.1319 16.608 36.9612 16.736C36.7906 16.864 36.5452 16.928 36.2252 16.928H25.1532L25.4092 14.944H35.2332L34.6572 15.392C34.8066 14.4534 34.7746 13.6107 34.5612 12.864C34.3692 12.1174 33.9852 11.52 33.4092 11.072C32.8332 10.6027 32.0332 10.368 31.0092 10.368C29.9639 10.368 29.0786 10.6134 28.3532 11.104C27.6492 11.5734 27.0946 12.1814 26.6892 12.928C26.3052 13.6747 26.0386 14.464 25.8892 15.296L25.7612 16.16C25.4626 17.8667 25.7186 19.232 26.5292 20.256C27.3612 21.28 28.6199 21.792 30.3052 21.792C31.0092 21.792 31.7132 21.7067 32.4172 21.536C33.1212 21.3654 33.7719 21.088 34.3692 20.704C34.7106 20.512 35.0092 20.4267 35.2652 20.448C35.5426 20.448 35.7559 20.5334 35.9052 20.704C36.0759 20.8747 36.1826 21.088 36.2252 21.344C36.2679 21.5787 36.2252 21.8347 36.0972 22.112C35.9906 22.368 35.7879 22.592 35.4892 22.784C34.7639 23.296 33.8999 23.68 32.8972 23.936C31.8946 24.1707 30.9559 24.288 30.0812 24.288Z"/>
<path d="M46.5327 30.048C45.2741 30.048 44.0901 29.888 42.9807 29.568C41.8714 29.2694 40.8901 28.8534 40.0367 28.32C39.7381 28.1494 39.5354 27.936 39.4287 27.68C39.3434 27.424 39.3327 27.168 39.3967 26.912C39.4607 26.656 39.5781 26.432 39.7487 26.24C39.9407 26.0694 40.1647 25.9627 40.4207 25.92C40.6981 25.8774 40.9967 25.952 41.3167 26.144C42.0207 26.5707 42.7674 26.912 43.5567 27.168C44.3461 27.424 45.1887 27.552 46.0847 27.552C47.4287 27.552 48.5061 27.232 49.3167 26.592C50.1487 25.952 50.6821 24.9387 50.9167 23.552L51.4607 20.192L51.7167 20.224C51.2047 21.2907 50.4474 22.1227 49.4447 22.72C48.4421 23.3174 47.3007 23.616 46.0207 23.616C44.7621 23.616 43.6634 23.36 42.7247 22.848C41.8074 22.336 41.0821 21.6 40.5487 20.64C40.0367 19.68 39.7807 18.5387 39.7807 17.216C39.7807 16.0214 39.9621 14.88 40.3247 13.792C40.6874 12.6827 41.2101 11.7014 41.8927 10.848C42.5754 9.99471 43.3967 9.32271 44.3567 8.83205C45.3381 8.34138 46.4474 8.09605 47.6847 8.09605C48.9434 8.09605 50.0527 8.40538 51.0127 9.02405C51.9727 9.62138 52.6341 10.528 52.9967 11.744L52.6447 12.384L53.0607 9.72805C53.1461 9.19471 53.3381 8.80005 53.6367 8.54405C53.9567 8.28805 54.3727 8.16005 54.8847 8.16005C55.3967 8.16005 55.7594 8.33071 55.9727 8.67205C56.1861 8.99205 56.2501 9.45071 56.1647 10.048L54.0527 23.392C53.7114 25.5894 52.9114 27.2427 51.6527 28.352C50.4154 29.4827 48.7087 30.048 46.5327 30.048ZM46.9487 21.088C48.0581 21.088 48.9967 20.7894 49.7647 20.192C50.5327 19.5947 51.1087 18.8054 51.4927 17.824C51.8981 16.8214 52.1007 15.7547 52.1007 14.624C52.1007 13.3654 51.7594 12.384 51.0767 11.68C50.3941 10.976 49.4234 10.624 48.1647 10.624C47.0767 10.624 46.1487 10.9227 45.3807 11.52C44.6127 12.1174 44.0261 12.9067 43.6207 13.888C43.2367 14.8694 43.0447 15.9254 43.0447 17.056C43.0447 18.336 43.3861 19.328 44.0687 20.032C44.7514 20.736 45.7114 21.088 46.9487 21.088Z"/>
<path d="M60.0607 24.224C59.5701 24.224 59.2074 24.064 58.9727 23.744C58.7381 23.4027 58.6634 22.9334 58.7487 22.336L60.7647 9.76005C60.8501 9.22671 61.0421 8.83205 61.3407 8.57605C61.6607 8.29871 62.0874 8.16005 62.6207 8.16005C63.1114 8.16005 63.4741 8.33071 63.7087 8.67205C63.9434 8.99205 64.0181 9.45071 63.9327 10.048L61.9167 22.624C61.8314 23.1574 61.6394 23.5627 61.3407 23.84C61.0421 24.096 60.6154 24.224 60.0607 24.224ZM63.1647 4.89605C62.5674 4.89605 62.1194 4.74671 61.8207 4.44805C61.5221 4.14938 61.3941 3.73338 61.4367 3.20005C61.5007 2.56005 61.7354 2.08005 62.1407 1.76005C62.5461 1.41871 63.0794 1.24805 63.7407 1.24805C64.3594 1.24805 64.8181 1.39738 65.1167 1.69605C65.4154 1.99471 65.5434 2.41071 65.5007 2.94405C65.4367 3.58405 65.2021 4.07471 64.7967 4.41605C64.4127 4.73605 63.8687 4.89605 63.1647 4.89605Z"/>
<path d="M72.418 24.288C71.4153 24.288 70.4447 24.1814 69.506 23.968C68.5673 23.7334 67.7567 23.4347 67.074 23.072C66.7327 22.9014 66.498 22.688 66.37 22.432C66.242 22.1547 66.1887 21.888 66.21 21.632C66.2527 21.376 66.3487 21.1627 66.498 20.992C66.6687 20.8 66.882 20.6827 67.138 20.64C67.4153 20.5974 67.714 20.6614 68.034 20.832C68.7167 21.216 69.4313 21.504 70.178 21.696C70.9247 21.8667 71.682 21.952 72.45 21.952C73.538 21.952 74.3807 21.7387 74.978 21.312C75.5753 20.8854 75.874 20.3094 75.874 19.584C75.874 19.0934 75.7033 18.688 75.362 18.368C75.042 18.048 74.562 17.824 73.922 17.696L70.946 17.024C69.8367 16.7894 68.962 16.3307 68.322 15.648C67.7033 14.9654 67.394 14.112 67.394 13.088C67.394 12.1494 67.65 11.3067 68.162 10.56C68.6953 9.81338 69.4633 9.21605 70.466 8.76805C71.49 8.32005 72.6953 8.09605 74.082 8.09605C74.8927 8.09605 75.7353 8.21338 76.61 8.44805C77.4847 8.68271 78.2313 9.00271 78.85 9.40805C79.1487 9.60005 79.3513 9.83471 79.458 10.112C79.586 10.368 79.618 10.624 79.554 10.88C79.5113 11.1147 79.4047 11.3174 79.234 11.488C79.0847 11.6374 78.8713 11.7227 78.594 11.744C78.338 11.7654 78.05 11.68 77.73 11.488C77.1967 11.1467 76.5993 10.8907 75.938 10.72C75.2767 10.5494 74.6047 10.464 73.922 10.464C72.8127 10.464 71.938 10.688 71.298 11.136C70.6793 11.584 70.37 12.1814 70.37 12.928C70.37 13.376 70.5087 13.7707 70.786 14.112C71.0633 14.432 71.5113 14.656 72.13 14.784L75.106 15.456C76.3007 15.7334 77.218 16.2027 77.858 16.864C78.5193 17.504 78.85 18.336 78.85 19.36C78.85 20.9174 78.2633 22.1334 77.09 23.008C75.9167 23.8614 74.3593 24.288 72.418 24.288Z"/>
<path d="M88.4977 24.288C87.2178 24.288 86.1511 24.0427 85.2977 23.552C84.4657 23.0614 83.8791 22.3787 83.5377 21.504C83.2177 20.6294 83.1537 19.6054 83.3457 18.432L84.5617 10.88H82.8337C82.4071 10.88 82.0657 10.784 81.8097 10.592C81.5751 10.4 81.4577 10.144 81.4577 9.82405C81.4577 9.35471 81.6071 9.00271 81.9057 8.76805C82.2257 8.51205 82.6311 8.38405 83.1217 8.38405H84.9457L85.4897 4.96005C85.5751 4.44805 85.7671 4.07471 86.0657 3.84005C86.3644 3.58405 86.7591 3.45605 87.2497 3.45605C87.8044 3.45605 88.1991 3.61605 88.4337 3.93605C88.6684 4.23471 88.7431 4.67205 88.6577 5.24805L88.1777 8.38405H91.6977C92.1457 8.38405 92.4871 8.46938 92.7217 8.64005C92.9564 8.81071 93.0737 9.07738 93.0737 9.44005C93.0737 9.84538 92.9351 10.1867 92.6577 10.464C92.4017 10.7414 92.0284 10.88 91.5377 10.88H87.7937L86.6097 18.176C86.4177 19.392 86.5564 20.2667 87.0257 20.8C87.4951 21.3334 88.1884 21.6 89.1057 21.6C89.5111 21.6 89.8311 21.568 90.0657 21.504C90.3217 21.4187 90.5457 21.376 90.7377 21.376C90.9937 21.376 91.1751 21.4507 91.2817 21.6C91.4097 21.728 91.4737 21.9627 91.4737 22.304C91.4737 22.88 91.3777 23.2854 91.1857 23.52C91.0151 23.7547 90.7591 23.9254 90.4177 24.032C90.1831 24.1174 89.8737 24.1814 89.4897 24.224C89.1271 24.2667 88.7964 24.288 88.4977 24.288Z"/>
<path d="M94.9052 24.224C94.3932 24.224 94.0199 24.064 93.7852 23.744C93.5506 23.424 93.4759 22.976 93.5612 22.4L95.5772 9.72805C95.6626 9.19471 95.8546 8.80005 96.1532 8.54405C96.4732 8.28805 96.8892 8.16005 97.4012 8.16005C97.8919 8.16005 98.2546 8.32005 98.4892 8.64005C98.7239 8.93871 98.7986 9.38671 98.7132 9.98405L98.3612 12.128H98.0412C98.4679 10.8694 99.1932 9.89871 100.217 9.21605C101.241 8.51205 102.415 8.12805 103.737 8.06405C104.271 8.04271 104.623 8.11738 104.793 8.28805C104.985 8.45871 105.081 8.75738 105.081 9.18405C105.081 9.73871 104.953 10.144 104.697 10.4C104.441 10.656 104.025 10.816 103.449 10.88L102.681 10.976C101.103 11.1254 99.9719 11.5947 99.2892 12.384C98.6066 13.1734 98.1479 14.2507 97.9132 15.616L96.7932 22.688C96.7292 23.2 96.5372 23.584 96.2172 23.84C95.8972 24.096 95.4599 24.224 94.9052 24.224Z"/>
<path d="M110.334 24.288C109.417 24.288 108.564 24.0854 107.774 23.68C106.985 23.2534 106.356 22.688 105.886 21.984C105.417 21.2587 105.182 20.448 105.182 19.552C105.182 18.4427 105.481 17.5467 106.078 16.864C106.697 16.1814 107.657 15.68 108.958 15.36C110.26 15.0187 111.935 14.848 113.982 14.848H116.542L116.254 16.832H114.27C112.798 16.832 111.625 16.9067 110.75 17.056C109.897 17.2054 109.289 17.472 108.926 17.856C108.564 18.2187 108.382 18.72 108.382 19.36C108.382 20.2134 108.66 20.864 109.214 21.312C109.79 21.76 110.473 21.984 111.262 21.984C111.988 21.984 112.66 21.824 113.278 21.504C113.897 21.184 114.42 20.7254 114.846 20.128C115.294 19.5094 115.582 18.7734 115.71 17.92L116.318 14.08C116.51 12.9494 116.35 12.0854 115.838 11.488C115.348 10.8907 114.462 10.592 113.182 10.592C112.436 10.592 111.71 10.6667 111.006 10.816C110.324 10.9654 109.631 11.2214 108.926 11.584C108.606 11.7547 108.308 11.8187 108.03 11.776C107.753 11.712 107.529 11.5947 107.358 11.424C107.188 11.232 107.092 11.008 107.07 10.752C107.049 10.496 107.113 10.24 107.262 9.98405C107.433 9.72805 107.71 9.50405 108.094 9.31205C108.948 8.88538 109.854 8.57605 110.814 8.38405C111.774 8.19205 112.692 8.09605 113.566 8.09605C115.124 8.09605 116.35 8.38405 117.246 8.96005C118.164 9.53605 118.782 10.336 119.102 11.36C119.444 12.384 119.508 13.568 119.294 14.912L118.078 22.624C118.014 23.1574 117.822 23.5627 117.502 23.84C117.204 24.096 116.809 24.224 116.318 24.224C115.849 24.224 115.497 24.0747 115.262 23.776C115.028 23.456 114.953 23.008 115.038 22.432L115.39 20.096L115.646 20.576C115.369 21.408 114.942 22.112 114.366 22.688C113.812 23.2427 113.182 23.648 112.478 23.904C111.796 24.16 111.081 24.288 110.334 24.288Z"/>
<path d="M123.874 24.224C123.362 24.224 122.989 24.064 122.754 23.744C122.519 23.424 122.445 22.976 122.53 22.4L124.546 9.72805C124.631 9.19471 124.823 8.80005 125.122 8.54405C125.442 8.28805 125.858 8.16005 126.37 8.16005C126.861 8.16005 127.223 8.32005 127.458 8.64005C127.693 8.93871 127.767 9.38671 127.682 9.98405L127.33 12.128H127.01C127.437 10.8694 128.162 9.89871 129.186 9.21605C130.21 8.51205 131.383 8.12805 132.706 8.06405C133.239 8.04271 133.591 8.11738 133.762 8.28805C133.954 8.45871 134.05 8.75738 134.05 9.18405C134.05 9.73871 133.922 10.144 133.666 10.4C133.41 10.656 132.994 10.816 132.418 10.88L131.65 10.976C130.071 11.1254 128.941 11.5947 128.258 12.384C127.575 13.1734 127.117 14.2507 126.882 15.616L125.762 22.688C125.698 23.2 125.506 23.584 125.186 23.84C124.866 24.096 124.429 24.224 123.874 24.224Z"/>
<path d="M135.843 24.224C135.353 24.224 134.99 24.064 134.755 23.744C134.521 23.424 134.446 22.976 134.531 22.4L136.548 9.72805C136.633 9.19471 136.825 8.80005 137.123 8.54405C137.443 8.28805 137.849 8.16005 138.339 8.16005C138.83 8.16005 139.193 8.32005 139.427 8.64005C139.662 8.96005 139.737 9.40805 139.651 9.98405L139.268 12.416L139.011 11.84C139.609 10.5814 140.387 9.64271 141.348 9.02405C142.329 8.40538 143.396 8.09605 144.548 8.09605C145.764 8.09605 146.755 8.42671 147.523 9.08805C148.313 9.72805 148.814 10.6774 149.027 11.936L148.611 11.808C149.145 10.6134 149.902 9.69605 150.883 9.05605C151.886 8.41605 153.06 8.09605 154.404 8.09605C155.492 8.09605 156.409 8.33071 157.156 8.80005C157.924 9.26938 158.457 9.98405 158.755 10.944C159.054 11.904 159.086 13.1307 158.852 14.624L157.572 22.688C157.508 23.1787 157.326 23.5627 157.027 23.84C156.729 24.096 156.313 24.224 155.779 24.224C155.246 24.224 154.862 24.064 154.628 23.744C154.393 23.424 154.318 22.976 154.404 22.4L155.619 14.528C155.811 13.248 155.715 12.288 155.331 11.648C154.947 11.008 154.254 10.688 153.251 10.688C152.078 10.688 151.097 11.1254 150.307 12C149.539 12.8534 149.027 14.048 148.771 15.584L147.684 22.688C147.598 23.1787 147.396 23.5627 147.076 23.84C146.755 24.096 146.339 24.224 145.827 24.224C145.316 24.224 144.931 24.064 144.675 23.744C144.441 23.424 144.366 22.976 144.451 22.4L145.731 14.528C145.923 13.248 145.817 12.288 145.411 11.648C145.027 11.008 144.345 10.688 143.363 10.688C142.169 10.688 141.177 11.1254 140.387 12C139.619 12.8534 139.107 14.048 138.852 15.584L137.731 22.688C137.582 23.712 136.953 24.224 135.843 24.224Z"/>
<path d="M169.706 24.288C168.17 24.288 166.837 24.0107 165.706 23.456C164.597 22.88 163.733 22.0694 163.114 21.024C162.517 19.9787 162.218 18.7414 162.218 17.312C162.218 15.6054 162.57 14.0587 163.274 12.672C163.978 11.2854 164.96 10.176 166.218 9.34405C167.498 8.51205 168.981 8.09605 170.666 8.09605C171.925 8.09605 172.981 8.32005 173.834 8.76805C174.688 9.19471 175.36 9.78138 175.85 10.528C176.341 11.2747 176.661 12.1174 176.81 13.056C176.981 13.9947 177.013 14.9547 176.906 15.936C176.864 16.3414 176.757 16.608 176.586 16.736C176.416 16.864 176.17 16.928 175.85 16.928H164.778L165.034 14.944H174.858L174.282 15.392C174.432 14.4534 174.4 13.6107 174.186 12.864C173.994 12.1174 173.61 11.52 173.034 11.072C172.458 10.6027 171.658 10.368 170.634 10.368C169.589 10.368 168.704 10.6134 167.978 11.104C167.274 11.5734 166.72 12.1814 166.314 12.928C165.93 13.6747 165.664 14.464 165.514 15.296L165.386 16.16C165.088 17.8667 165.344 19.232 166.154 20.256C166.986 21.28 168.245 21.792 169.93 21.792C170.634 21.792 171.338 21.7067 172.042 21.536C172.746 21.3654 173.397 21.088 173.994 20.704C174.336 20.512 174.634 20.4267 174.89 20.448C175.168 20.448 175.381 20.5334 175.53 20.704C175.701 20.8747 175.808 21.088 175.85 21.344C175.893 21.5787 175.85 21.8347 175.722 22.112C175.616 22.368 175.413 22.592 175.114 22.784C174.389 23.296 173.525 23.68 172.522 23.936C171.52 24.1707 170.581 24.288 169.706 24.288Z"/>
</mask>
<path d="M3.04 24.224C2.528 24.224 2.144 24.0534 1.888 23.712C1.65333 23.3707 1.58933 22.8907 1.696 22.272L4.736 3.10405C4.82133 2.54938 5.024 2.13338 5.344 1.85605C5.664 1.57871 6.10133 1.44005 6.656 1.44005H13.376C15.8293 1.44005 17.6853 1.99471 18.944 3.10405C20.2027 4.19205 20.832 5.68538 20.832 7.58405C20.832 9.16271 20.4693 10.4747 19.744 11.52C19.0187 12.5654 18.0267 13.344 16.768 13.856C15.5093 14.368 14.0693 14.6134 12.448 14.592V14.144H13.12C14.08 14.144 14.8693 14.4214 15.488 14.976C16.1067 15.5307 16.608 16.2987 16.992 17.28L18.816 22.08C18.9867 22.528 19.0507 22.912 19.008 23.232C18.9653 23.552 18.816 23.7974 18.56 23.968C18.3253 24.1387 17.9733 24.224 17.504 24.224C17.056 24.224 16.6933 24.1174 16.416 23.904C16.16 23.6694 15.936 23.296 15.744 22.784L13.568 17.056C13.248 16.2027 12.8213 15.5947 12.288 15.232C11.776 14.8694 11.04 14.688 10.08 14.688H6.176L4.96 22.592C4.87466 23.1254 4.672 23.5307 4.352 23.808C4.032 24.0854 3.59466 24.224 3.04 24.224ZM6.592 12.192H12.544C14.144 12.192 15.3813 11.8187 16.256 11.072C17.152 10.304 17.6 9.22671 17.6 7.84005C17.6 6.58138 17.2267 5.64271 16.48 5.02405C15.7333 4.40538 14.56 4.09605 12.96 4.09605H7.872L6.592 12.192Z" fill="white"/>
<path d="M30.0812 24.288C28.5452 24.288 27.2119 24.0107 26.0812 23.456C24.9719 22.88 24.1079 22.0694 23.4892 21.024C22.8919 19.9787 22.5932 18.7414 22.5932 17.312C22.5932 15.6054 22.9452 14.0587 23.6492 12.672C24.3532 11.2854 25.3346 10.176 26.5932 9.34405C27.8732 8.51205 29.3559 8.09605 31.0412 8.09605C32.2999 8.09605 33.3559 8.32005 34.2092 8.76805C35.0626 9.19471 35.7346 9.78138 36.2252 10.528C36.7159 11.2747 37.0359 12.1174 37.1852 13.056C37.3559 13.9947 37.3879 14.9547 37.2812 15.936C37.2386 16.3414 37.1319 16.608 36.9612 16.736C36.7906 16.864 36.5452 16.928 36.2252 16.928H25.1532L25.4092 14.944H35.2332L34.6572 15.392C34.8066 14.4534 34.7746 13.6107 34.5612 12.864C34.3692 12.1174 33.9852 11.52 33.4092 11.072C32.8332 10.6027 32.0332 10.368 31.0092 10.368C29.9639 10.368 29.0786 10.6134 28.3532 11.104C27.6492 11.5734 27.0946 12.1814 26.6892 12.928C26.3052 13.6747 26.0386 14.464 25.8892 15.296L25.7612 16.16C25.4626 17.8667 25.7186 19.232 26.5292 20.256C27.3612 21.28 28.6199 21.792 30.3052 21.792C31.0092 21.792 31.7132 21.7067 32.4172 21.536C33.1212 21.3654 33.7719 21.088 34.3692 20.704C34.7106 20.512 35.0092 20.4267 35.2652 20.448C35.5426 20.448 35.7559 20.5334 35.9052 20.704C36.0759 20.8747 36.1826 21.088 36.2252 21.344C36.2679 21.5787 36.2252 21.8347 36.0972 22.112C35.9906 22.368 35.7879 22.592 35.4892 22.784C34.7639 23.296 33.8999 23.68 32.8972 23.936C31.8946 24.1707 30.9559 24.288 30.0812 24.288Z" fill="white"/>
<path d="M46.5327 30.048C45.2741 30.048 44.0901 29.888 42.9807 29.568C41.8714 29.2694 40.8901 28.8534 40.0367 28.32C39.7381 28.1494 39.5354 27.936 39.4287 27.68C39.3434 27.424 39.3327 27.168 39.3967 26.912C39.4607 26.656 39.5781 26.432 39.7487 26.24C39.9407 26.0694 40.1647 25.9627 40.4207 25.92C40.6981 25.8774 40.9967 25.952 41.3167 26.144C42.0207 26.5707 42.7674 26.912 43.5567 27.168C44.3461 27.424 45.1887 27.552 46.0847 27.552C47.4287 27.552 48.5061 27.232 49.3167 26.592C50.1487 25.952 50.6821 24.9387 50.9167 23.552L51.4607 20.192L51.7167 20.224C51.2047 21.2907 50.4474 22.1227 49.4447 22.72C48.4421 23.3174 47.3007 23.616 46.0207 23.616C44.7621 23.616 43.6634 23.36 42.7247 22.848C41.8074 22.336 41.0821 21.6 40.5487 20.64C40.0367 19.68 39.7807 18.5387 39.7807 17.216C39.7807 16.0214 39.9621 14.88 40.3247 13.792C40.6874 12.6827 41.2101 11.7014 41.8927 10.848C42.5754 9.99471 43.3967 9.32271 44.3567 8.83205C45.3381 8.34138 46.4474 8.09605 47.6847 8.09605C48.9434 8.09605 50.0527 8.40538 51.0127 9.02405C51.9727 9.62138 52.6341 10.528 52.9967 11.744L52.6447 12.384L53.0607 9.72805C53.1461 9.19471 53.3381 8.80005 53.6367 8.54405C53.9567 8.28805 54.3727 8.16005 54.8847 8.16005C55.3967 8.16005 55.7594 8.33071 55.9727 8.67205C56.1861 8.99205 56.2501 9.45071 56.1647 10.048L54.0527 23.392C53.7114 25.5894 52.9114 27.2427 51.6527 28.352C50.4154 29.4827 48.7087 30.048 46.5327 30.048ZM46.9487 21.088C48.0581 21.088 48.9967 20.7894 49.7647 20.192C50.5327 19.5947 51.1087 18.8054 51.4927 17.824C51.8981 16.8214 52.1007 15.7547 52.1007 14.624C52.1007 13.3654 51.7594 12.384 51.0767 11.68C50.3941 10.976 49.4234 10.624 48.1647 10.624C47.0767 10.624 46.1487 10.9227 45.3807 11.52C44.6127 12.1174 44.0261 12.9067 43.6207 13.888C43.2367 14.8694 43.0447 15.9254 43.0447 17.056C43.0447 18.336 43.3861 19.328 44.0687 20.032C44.7514 20.736 45.7114 21.088 46.9487 21.088Z" fill="white"/>
<path d="M60.0607 24.224C59.5701 24.224 59.2074 24.064 58.9727 23.744C58.7381 23.4027 58.6634 22.9334 58.7487 22.336L60.7647 9.76005C60.8501 9.22671 61.0421 8.83205 61.3407 8.57605C61.6607 8.29871 62.0874 8.16005 62.6207 8.16005C63.1114 8.16005 63.4741 8.33071 63.7087 8.67205C63.9434 8.99205 64.0181 9.45071 63.9327 10.048L61.9167 22.624C61.8314 23.1574 61.6394 23.5627 61.3407 23.84C61.0421 24.096 60.6154 24.224 60.0607 24.224ZM63.1647 4.89605C62.5674 4.89605 62.1194 4.74671 61.8207 4.44805C61.5221 4.14938 61.3941 3.73338 61.4367 3.20005C61.5007 2.56005 61.7354 2.08005 62.1407 1.76005C62.5461 1.41871 63.0794 1.24805 63.7407 1.24805C64.3594 1.24805 64.8181 1.39738 65.1167 1.69605C65.4154 1.99471 65.5434 2.41071 65.5007 2.94405C65.4367 3.58405 65.2021 4.07471 64.7967 4.41605C64.4127 4.73605 63.8687 4.89605 63.1647 4.89605Z" fill="white"/>
<path d="M72.418 24.288C71.4153 24.288 70.4447 24.1814 69.506 23.968C68.5673 23.7334 67.7567 23.4347 67.074 23.072C66.7327 22.9014 66.498 22.688 66.37 22.432C66.242 22.1547 66.1887 21.888 66.21 21.632C66.2527 21.376 66.3487 21.1627 66.498 20.992C66.6687 20.8 66.882 20.6827 67.138 20.64C67.4153 20.5974 67.714 20.6614 68.034 20.832C68.7167 21.216 69.4313 21.504 70.178 21.696C70.9247 21.8667 71.682 21.952 72.45 21.952C73.538 21.952 74.3807 21.7387 74.978 21.312C75.5753 20.8854 75.874 20.3094 75.874 19.584C75.874 19.0934 75.7033 18.688 75.362 18.368C75.042 18.048 74.562 17.824 73.922 17.696L70.946 17.024C69.8367 16.7894 68.962 16.3307 68.322 15.648C67.7033 14.9654 67.394 14.112 67.394 13.088C67.394 12.1494 67.65 11.3067 68.162 10.56C68.6953 9.81338 69.4633 9.21605 70.466 8.76805C71.49 8.32005 72.6953 8.09605 74.082 8.09605C74.8927 8.09605 75.7353 8.21338 76.61 8.44805C77.4847 8.68271 78.2313 9.00271 78.85 9.40805C79.1487 9.60005 79.3513 9.83471 79.458 10.112C79.586 10.368 79.618 10.624 79.554 10.88C79.5113 11.1147 79.4047 11.3174 79.234 11.488C79.0847 11.6374 78.8713 11.7227 78.594 11.744C78.338 11.7654 78.05 11.68 77.73 11.488C77.1967 11.1467 76.5993 10.8907 75.938 10.72C75.2767 10.5494 74.6047 10.464 73.922 10.464C72.8127 10.464 71.938 10.688 71.298 11.136C70.6793 11.584 70.37 12.1814 70.37 12.928C70.37 13.376 70.5087 13.7707 70.786 14.112C71.0633 14.432 71.5113 14.656 72.13 14.784L75.106 15.456C76.3007 15.7334 77.218 16.2027 77.858 16.864C78.5193 17.504 78.85 18.336 78.85 19.36C78.85 20.9174 78.2633 22.1334 77.09 23.008C75.9167 23.8614 74.3593 24.288 72.418 24.288Z" fill="white"/>
<path d="M88.4977 24.288C87.2178 24.288 86.1511 24.0427 85.2977 23.552C84.4657 23.0614 83.8791 22.3787 83.5377 21.504C83.2177 20.6294 83.1537 19.6054 83.3457 18.432L84.5617 10.88H82.8337C82.4071 10.88 82.0657 10.784 81.8097 10.592C81.5751 10.4 81.4577 10.144 81.4577 9.82405C81.4577 9.35471 81.6071 9.00271 81.9057 8.76805C82.2257 8.51205 82.6311 8.38405 83.1217 8.38405H84.9457L85.4897 4.96005C85.5751 4.44805 85.7671 4.07471 86.0657 3.84005C86.3644 3.58405 86.7591 3.45605 87.2497 3.45605C87.8044 3.45605 88.1991 3.61605 88.4337 3.93605C88.6684 4.23471 88.7431 4.67205 88.6577 5.24805L88.1777 8.38405H91.6977C92.1457 8.38405 92.4871 8.46938 92.7217 8.64005C92.9564 8.81071 93.0737 9.07738 93.0737 9.44005C93.0737 9.84538 92.9351 10.1867 92.6577 10.464C92.4017 10.7414 92.0284 10.88 91.5377 10.88H87.7937L86.6097 18.176C86.4177 19.392 86.5564 20.2667 87.0257 20.8C87.4951 21.3334 88.1884 21.6 89.1057 21.6C89.5111 21.6 89.8311 21.568 90.0657 21.504C90.3217 21.4187 90.5457 21.376 90.7377 21.376C90.9937 21.376 91.1751 21.4507 91.2817 21.6C91.4097 21.728 91.4737 21.9627 91.4737 22.304C91.4737 22.88 91.3777 23.2854 91.1857 23.52C91.0151 23.7547 90.7591 23.9254 90.4177 24.032C90.1831 24.1174 89.8737 24.1814 89.4897 24.224C89.1271 24.2667 88.7964 24.288 88.4977 24.288Z" fill="white"/>
<path d="M94.9052 24.224C94.3932 24.224 94.0199 24.064 93.7852 23.744C93.5506 23.424 93.4759 22.976 93.5612 22.4L95.5772 9.72805C95.6626 9.19471 95.8546 8.80005 96.1532 8.54405C96.4732 8.28805 96.8892 8.16005 97.4012 8.16005C97.8919 8.16005 98.2546 8.32005 98.4892 8.64005C98.7239 8.93871 98.7986 9.38671 98.7132 9.98405L98.3612 12.128H98.0412C98.4679 10.8694 99.1932 9.89871 100.217 9.21605C101.241 8.51205 102.415 8.12805 103.737 8.06405C104.271 8.04271 104.623 8.11738 104.793 8.28805C104.985 8.45871 105.081 8.75738 105.081 9.18405C105.081 9.73871 104.953 10.144 104.697 10.4C104.441 10.656 104.025 10.816 103.449 10.88L102.681 10.976C101.103 11.1254 99.9719 11.5947 99.2892 12.384C98.6066 13.1734 98.1479 14.2507 97.9132 15.616L96.7932 22.688C96.7292 23.2 96.5372 23.584 96.2172 23.84C95.8972 24.096 95.4599 24.224 94.9052 24.224Z" fill="white"/>
<path d="M110.334 24.288C109.417 24.288 108.564 24.0854 107.774 23.68C106.985 23.2534 106.356 22.688 105.886 21.984C105.417 21.2587 105.182 20.448 105.182 19.552C105.182 18.4427 105.481 17.5467 106.078 16.864C106.697 16.1814 107.657 15.68 108.958 15.36C110.26 15.0187 111.935 14.848 113.982 14.848H116.542L116.254 16.832H114.27C112.798 16.832 111.625 16.9067 110.75 17.056C109.897 17.2054 109.289 17.472 108.926 17.856C108.564 18.2187 108.382 18.72 108.382 19.36C108.382 20.2134 108.66 20.864 109.214 21.312C109.79 21.76 110.473 21.984 111.262 21.984C111.988 21.984 112.66 21.824 113.278 21.504C113.897 21.184 114.42 20.7254 114.846 20.128C115.294 19.5094 115.582 18.7734 115.71 17.92L116.318 14.08C116.51 12.9494 116.35 12.0854 115.838 11.488C115.348 10.8907 114.462 10.592 113.182 10.592C112.436 10.592 111.71 10.6667 111.006 10.816C110.324 10.9654 109.631 11.2214 108.926 11.584C108.606 11.7547 108.308 11.8187 108.03 11.776C107.753 11.712 107.529 11.5947 107.358 11.424C107.188 11.232 107.092 11.008 107.07 10.752C107.049 10.496 107.113 10.24 107.262 9.98405C107.433 9.72805 107.71 9.50405 108.094 9.31205C108.948 8.88538 109.854 8.57605 110.814 8.38405C111.774 8.19205 112.692 8.09605 113.566 8.09605C115.124 8.09605 116.35 8.38405 117.246 8.96005C118.164 9.53605 118.782 10.336 119.102 11.36C119.444 12.384 119.508 13.568 119.294 14.912L118.078 22.624C118.014 23.1574 117.822 23.5627 117.502 23.84C117.204 24.096 116.809 24.224 116.318 24.224C115.849 24.224 115.497 24.0747 115.262 23.776C115.028 23.456 114.953 23.008 115.038 22.432L115.39 20.096L115.646 20.576C115.369 21.408 114.942 22.112 114.366 22.688C113.812 23.2427 113.182 23.648 112.478 23.904C111.796 24.16 111.081 24.288 110.334 24.288Z" fill="white"/>
<path d="M123.874 24.224C123.362 24.224 122.989 24.064 122.754 23.744C122.519 23.424 122.445 22.976 122.53 22.4L124.546 9.72805C124.631 9.19471 124.823 8.80005 125.122 8.54405C125.442 8.28805 125.858 8.16005 126.37 8.16005C126.861 8.16005 127.223 8.32005 127.458 8.64005C127.693 8.93871 127.767 9.38671 127.682 9.98405L127.33 12.128H127.01C127.437 10.8694 128.162 9.89871 129.186 9.21605C130.21 8.51205 131.383 8.12805 132.706 8.06405C133.239 8.04271 133.591 8.11738 133.762 8.28805C133.954 8.45871 134.05 8.75738 134.05 9.18405C134.05 9.73871 133.922 10.144 133.666 10.4C133.41 10.656 132.994 10.816 132.418 10.88L131.65 10.976C130.071 11.1254 128.941 11.5947 128.258 12.384C127.575 13.1734 127.117 14.2507 126.882 15.616L125.762 22.688C125.698 23.2 125.506 23.584 125.186 23.84C124.866 24.096 124.429 24.224 123.874 24.224Z" fill="white"/>
<path d="M135.843 24.224C135.353 24.224 134.99 24.064 134.755 23.744C134.521 23.424 134.446 22.976 134.531 22.4L136.548 9.72805C136.633 9.19471 136.825 8.80005 137.123 8.54405C137.443 8.28805 137.849 8.16005 138.339 8.16005C138.83 8.16005 139.193 8.32005 139.427 8.64005C139.662 8.96005 139.737 9.40805 139.651 9.98405L139.268 12.416L139.011 11.84C139.609 10.5814 140.387 9.64271 141.348 9.02405C142.329 8.40538 143.396 8.09605 144.548 8.09605C145.764 8.09605 146.755 8.42671 147.523 9.08805C148.313 9.72805 148.814 10.6774 149.027 11.936L148.611 11.808C149.145 10.6134 149.902 9.69605 150.883 9.05605C151.886 8.41605 153.06 8.09605 154.404 8.09605C155.492 8.09605 156.409 8.33071 157.156 8.80005C157.924 9.26938 158.457 9.98405 158.755 10.944C159.054 11.904 159.086 13.1307 158.852 14.624L157.572 22.688C157.508 23.1787 157.326 23.5627 157.027 23.84C156.729 24.096 156.313 24.224 155.779 24.224C155.246 24.224 154.862 24.064 154.628 23.744C154.393 23.424 154.318 22.976 154.404 22.4L155.619 14.528C155.811 13.248 155.715 12.288 155.331 11.648C154.947 11.008 154.254 10.688 153.251 10.688C152.078 10.688 151.097 11.1254 150.307 12C149.539 12.8534 149.027 14.048 148.771 15.584L147.684 22.688C147.598 23.1787 147.396 23.5627 147.076 23.84C146.755 24.096 146.339 24.224 145.827 24.224C145.316 24.224 144.931 24.064 144.675 23.744C144.441 23.424 144.366 22.976 144.451 22.4L145.731 14.528C145.923 13.248 145.817 12.288 145.411 11.648C145.027 11.008 144.345 10.688 143.363 10.688C142.169 10.688 141.177 11.1254 140.387 12C139.619 12.8534 139.107 14.048 138.852 15.584L137.731 22.688C137.582 23.712 136.953 24.224 135.843 24.224Z" fill="white"/>
<path d="M169.706 24.288C168.17 24.288 166.837 24.0107 165.706 23.456C164.597 22.88 163.733 22.0694 163.114 21.024C162.517 19.9787 162.218 18.7414 162.218 17.312C162.218 15.6054 162.57 14.0587 163.274 12.672C163.978 11.2854 164.96 10.176 166.218 9.34405C167.498 8.51205 168.981 8.09605 170.666 8.09605C171.925 8.09605 172.981 8.32005 173.834 8.76805C174.688 9.19471 175.36 9.78138 175.85 10.528C176.341 11.2747 176.661 12.1174 176.81 13.056C176.981 13.9947 177.013 14.9547 176.906 15.936C176.864 16.3414 176.757 16.608 176.586 16.736C176.416 16.864 176.17 16.928 175.85 16.928H164.778L165.034 14.944H174.858L174.282 15.392C174.432 14.4534 174.4 13.6107 174.186 12.864C173.994 12.1174 173.61 11.52 173.034 11.072C172.458 10.6027 171.658 10.368 170.634 10.368C169.589 10.368 168.704 10.6134 167.978 11.104C167.274 11.5734 166.72 12.1814 166.314 12.928C165.93 13.6747 165.664 14.464 165.514 15.296L165.386 16.16C165.088 17.8667 165.344 19.232 166.154 20.256C166.986 21.28 168.245 21.792 169.93 21.792C170.634 21.792 171.338 21.7067 172.042 21.536C172.746 21.3654 173.397 21.088 173.994 20.704C174.336 20.512 174.634 20.4267 174.89 20.448C175.168 20.448 175.381 20.5334 175.53 20.704C175.701 20.8747 175.808 21.088 175.85 21.344C175.893 21.5787 175.85 21.8347 175.722 22.112C175.616 22.368 175.413 22.592 175.114 22.784C174.389 23.296 173.525 23.68 172.522 23.936C171.52 24.1707 170.581 24.288 169.706 24.288Z" fill="white"/>
<path d="M3.04 24.224C2.528 24.224 2.144 24.0534 1.888 23.712C1.65333 23.3707 1.58933 22.8907 1.696 22.272L4.736 3.10405C4.82133 2.54938 5.024 2.13338 5.344 1.85605C5.664 1.57871 6.10133 1.44005 6.656 1.44005H13.376C15.8293 1.44005 17.6853 1.99471 18.944 3.10405C20.2027 4.19205 20.832 5.68538 20.832 7.58405C20.832 9.16271 20.4693 10.4747 19.744 11.52C19.0187 12.5654 18.0267 13.344 16.768 13.856C15.5093 14.368 14.0693 14.6134 12.448 14.592V14.144H13.12C14.08 14.144 14.8693 14.4214 15.488 14.976C16.1067 15.5307 16.608 16.2987 16.992 17.28L18.816 22.08C18.9867 22.528 19.0507 22.912 19.008 23.232C18.9653 23.552 18.816 23.7974 18.56 23.968C18.3253 24.1387 17.9733 24.224 17.504 24.224C17.056 24.224 16.6933 24.1174 16.416 23.904C16.16 23.6694 15.936 23.296 15.744 22.784L13.568 17.056C13.248 16.2027 12.8213 15.5947 12.288 15.232C11.776 14.8694 11.04 14.688 10.08 14.688H6.176L4.96 22.592C4.87466 23.1254 4.672 23.5307 4.352 23.808C4.032 24.0854 3.59466 24.224 3.04 24.224ZM6.592 12.192H12.544C14.144 12.192 15.3813 11.8187 16.256 11.072C17.152 10.304 17.6 9.22671 17.6 7.84005C17.6 6.58138 17.2267 5.64271 16.48 5.02405C15.7333 4.40538 14.56 4.09605 12.96 4.09605H7.872L6.592 12.192Z" stroke="black" stroke-width="2" mask="url(#path-1-outside-1_255_3)"/>
<path d="M30.0812 24.288C28.5452 24.288 27.2119 24.0107 26.0812 23.456C24.9719 22.88 24.1079 22.0694 23.4892 21.024C22.8919 19.9787 22.5932 18.7414 22.5932 17.312C22.5932 15.6054 22.9452 14.0587 23.6492 12.672C24.3532 11.2854 25.3346 10.176 26.5932 9.34405C27.8732 8.51205 29.3559 8.09605 31.0412 8.09605C32.2999 8.09605 33.3559 8.32005 34.2092 8.76805C35.0626 9.19471 35.7346 9.78138 36.2252 10.528C36.7159 11.2747 37.0359 12.1174 37.1852 13.056C37.3559 13.9947 37.3879 14.9547 37.2812 15.936C37.2386 16.3414 37.1319 16.608 36.9612 16.736C36.7906 16.864 36.5452 16.928 36.2252 16.928H25.1532L25.4092 14.944H35.2332L34.6572 15.392C34.8066 14.4534 34.7746 13.6107 34.5612 12.864C34.3692 12.1174 33.9852 11.52 33.4092 11.072C32.8332 10.6027 32.0332 10.368 31.0092 10.368C29.9639 10.368 29.0786 10.6134 28.3532 11.104C27.6492 11.5734 27.0946 12.1814 26.6892 12.928C26.3052 13.6747 26.0386 14.464 25.8892 15.296L25.7612 16.16C25.4626 17.8667 25.7186 19.232 26.5292 20.256C27.3612 21.28 28.6199 21.792 30.3052 21.792C31.0092 21.792 31.7132 21.7067 32.4172 21.536C33.1212 21.3654 33.7719 21.088 34.3692 20.704C34.7106 20.512 35.0092 20.4267 35.2652 20.448C35.5426 20.448 35.7559 20.5334 35.9052 20.704C36.0759 20.8747 36.1826 21.088 36.2252 21.344C36.2679 21.5787 36.2252 21.8347 36.0972 22.112C35.9906 22.368 35.7879 22.592 35.4892 22.784C34.7639 23.296 33.8999 23.68 32.8972 23.936C31.8946 24.1707 30.9559 24.288 30.0812 24.288Z" stroke="black" stroke-width="2" mask="url(#path-1-outside-1_255_3)"/>
<path d="M46.5327 30.048C45.2741 30.048 44.0901 29.888 42.9807 29.568C41.8714 29.2694 40.8901 28.8534 40.0367 28.32C39.7381 28.1494 39.5354 27.936 39.4287 27.68C39.3434 27.424 39.3327 27.168 39.3967 26.912C39.4607 26.656 39.5781 26.432 39.7487 26.24C39.9407 26.0694 40.1647 25.9627 40.4207 25.92C40.6981 25.8774 40.9967 25.952 41.3167 26.144C42.0207 26.5707 42.7674 26.912 43.5567 27.168C44.3461 27.424 45.1887 27.552 46.0847 27.552C47.4287 27.552 48.5061 27.232 49.3167 26.592C50.1487 25.952 50.6821 24.9387 50.9167 23.552L51.4607 20.192L51.7167 20.224C51.2047 21.2907 50.4474 22.1227 49.4447 22.72C48.4421 23.3174 47.3007 23.616 46.0207 23.616C44.7621 23.616 43.6634 23.36 42.7247 22.848C41.8074 22.336 41.0821 21.6 40.5487 20.64C40.0367 19.68 39.7807 18.5387 39.7807 17.216C39.7807 16.0214 39.9621 14.88 40.3247 13.792C40.6874 12.6827 41.2101 11.7014 41.8927 10.848C42.5754 9.99471 43.3967 9.32271 44.3567 8.83205C45.3381 8.34138 46.4474 8.09605 47.6847 8.09605C48.9434 8.09605 50.0527 8.40538 51.0127 9.02405C51.9727 9.62138 52.6341 10.528 52.9967 11.744L52.6447 12.384L53.0607 9.72805C53.1461 9.19471 53.3381 8.80005 53.6367 8.54405C53.9567 8.28805 54.3727 8.16005 54.8847 8.16005C55.3967 8.16005 55.7594 8.33071 55.9727 8.67205C56.1861 8.99205 56.2501 9.45071 56.1647 10.048L54.0527 23.392C53.7114 25.5894 52.9114 27.2427 51.6527 28.352C50.4154 29.4827 48.7087 30.048 46.5327 30.048ZM46.9487 21.088C48.0581 21.088 48.9967 20.7894 49.7647 20.192C50.5327 19.5947 51.1087 18.8054 51.4927 17.824C51.8981 16.8214 52.1007 15.7547 52.1007 14.624C52.1007 13.3654 51.7594 12.384 51.0767 11.68C50.3941 10.976 49.4234 10.624 48.1647 10.624C47.0767 10.624 46.1487 10.9227 45.3807 11.52C44.6127 12.1174 44.0261 12.9067 43.6207 13.888C43.2367 14.8694 43.0447 15.9254 43.0447 17.056C43.0447 18.336 43.3861 19.328 44.0687 20.032C44.7514 20.736 45.7114 21.088 46.9487 21.088Z" stroke="black" stroke-width="2" mask="url(#path-1-outside-1_255_3)"/>
<path d="M60.0607 24.224C59.5701 24.224 59.2074 24.064 58.9727 23.744C58.7381 23.4027 58.6634 22.9334 58.7487 22.336L60.7647 9.76005C60.8501 9.22671 61.0421 8.83205 61.3407 8.57605C61.6607 8.29871 62.0874 8.16005 62.6207 8.16005C63.1114 8.16005 63.4741 8.33071 63.7087 8.67205C63.9434 8.99205 64.0181 9.45071 63.9327 10.048L61.9167 22.624C61.8314 23.1574 61.6394 23.5627 61.3407 23.84C61.0421 24.096 60.6154 24.224 60.0607 24.224ZM63.1647 4.89605C62.5674 4.89605 62.1194 4.74671 61.8207 4.44805C61.5221 4.14938 61.3941 3.73338 61.4367 3.20005C61.5007 2.56005 61.7354 2.08005 62.1407 1.76005C62.5461 1.41871 63.0794 1.24805 63.7407 1.24805C64.3594 1.24805 64.8181 1.39738 65.1167 1.69605C65.4154 1.99471 65.5434 2.41071 65.5007 2.94405C65.4367 3.58405 65.2021 4.07471 64.7967 4.41605C64.4127 4.73605 63.8687 4.89605 63.1647 4.89605Z" stroke="black" stroke-width="2" mask="url(#path-1-outside-1_255_3)"/>
<path d="M72.418 24.288C71.4153 24.288 70.4447 24.1814 69.506 23.968C68.5673 23.7334 67.7567 23.4347 67.074 23.072C66.7327 22.9014 66.498 22.688 66.37 22.432C66.242 22.1547 66.1887 21.888 66.21 21.632C66.2527 21.376 66.3487 21.1627 66.498 20.992C66.6687 20.8 66.882 20.6827 67.138 20.64C67.4153 20.5974 67.714 20.6614 68.034 20.832C68.7167 21.216 69.4313 21.504 70.178 21.696C70.9247 21.8667 71.682 21.952 72.45 21.952C73.538 21.952 74.3807 21.7387 74.978 21.312C75.5753 20.8854 75.874 20.3094 75.874 19.584C75.874 19.0934 75.7033 18.688 75.362 18.368C75.042 18.048 74.562 17.824 73.922 17.696L70.946 17.024C69.8367 16.7894 68.962 16.3307 68.322 15.648C67.7033 14.9654 67.394 14.112 67.394 13.088C67.394 12.1494 67.65 11.3067 68.162 10.56C68.6953 9.81338 69.4633 9.21605 70.466 8.76805C71.49 8.32005 72.6953 8.09605 74.082 8.09605C74.8927 8.09605 75.7353 8.21338 76.61 8.44805C77.4847 8.68271 78.2313 9.00271 78.85 9.40805C79.1487 9.60005 79.3513 9.83471 79.458 10.112C79.586 10.368 79.618 10.624 79.554 10.88C79.5113 11.1147 79.4047 11.3174 79.234 11.488C79.0847 11.6374 78.8713 11.7227 78.594 11.744C78.338 11.7654 78.05 11.68 77.73 11.488C77.1967 11.1467 76.5993 10.8907 75.938 10.72C75.2767 10.5494 74.6047 10.464 73.922 10.464C72.8127 10.464 71.938 10.688 71.298 11.136C70.6793 11.584 70.37 12.1814 70.37 12.928C70.37 13.376 70.5087 13.7707 70.786 14.112C71.0633 14.432 71.5113 14.656 72.13 14.784L75.106 15.456C76.3007 15.7334 77.218 16.2027 77.858 16.864C78.5193 17.504 78.85 18.336 78.85 19.36C78.85 20.9174 78.2633 22.1334 77.09 23.008C75.9167 23.8614 74.3593 24.288 72.418 24.288Z" stroke="black" stroke-width="2" mask="url(#path-1-outside-1_255_3)"/>
<path d="M88.4977 24.288C87.2178 24.288 86.1511 24.0427 85.2977 23.552C84.4657 23.0614 83.8791 22.3787 83.5377 21.504C83.2177 20.6294 83.1537 19.6054 83.3457 18.432L84.5617 10.88H82.8337C82.4071 10.88 82.0657 10.784 81.8097 10.592C81.5751 10.4 81.4577 10.144 81.4577 9.82405C81.4577 9.35471 81.6071 9.00271 81.9057 8.76805C82.2257 8.51205 82.6311 8.38405 83.1217 8.38405H84.9457L85.4897 4.96005C85.5751 4.44805 85.7671 4.07471 86.0657 3.84005C86.3644 3.58405 86.7591 3.45605 87.2497 3.45605C87.8044 3.45605 88.1991 3.61605 88.4337 3.93605C88.6684 4.23471 88.7431 4.67205 88.6577 5.24805L88.1777 8.38405H91.6977C92.1457 8.38405 92.4871 8.46938 92.7217 8.64005C92.9564 8.81071 93.0737 9.07738 93.0737 9.44005C93.0737 9.84538 92.9351 10.1867 92.6577 10.464C92.4017 10.7414 92.0284 10.88 91.5377 10.88H87.7937L86.6097 18.176C86.4177 19.392 86.5564 20.2667 87.0257 20.8C87.4951 21.3334 88.1884 21.6 89.1057 21.6C89.5111 21.6 89.8311 21.568 90.0657 21.504C90.3217 21.4187 90.5457 21.376 90.7377 21.376C90.9937 21.376 91.1751 21.4507 91.2817 21.6C91.4097 21.728 91.4737 21.9627 91.4737 22.304C91.4737 22.88 91.3777 23.2854 91.1857 23.52C91.0151 23.7547 90.7591 23.9254 90.4177 24.032C90.1831 24.1174 89.8737 24.1814 89.4897 24.224C89.1271 24.2667 88.7964 24.288 88.4977 24.288Z" stroke="black" stroke-width="2" mask="url(#path-1-outside-1_255_3)"/>
<path d="M94.9052 24.224C94.3932 24.224 94.0199 24.064 93.7852 23.744C93.5506 23.424 93.4759 22.976 93.5612 22.4L95.5772 9.72805C95.6626 9.19471 95.8546 8.80005 96.1532 8.54405C96.4732 8.28805 96.8892 8.16005 97.4012 8.16005C97.8919 8.16005 98.2546 8.32005 98.4892 8.64005C98.7239 8.93871 98.7986 9.38671 98.7132 9.98405L98.3612 12.128H98.0412C98.4679 10.8694 99.1932 9.89871 100.217 9.21605C101.241 8.51205 102.415 8.12805 103.737 8.06405C104.271 8.04271 104.623 8.11738 104.793 8.28805C104.985 8.45871 105.081 8.75738 105.081 9.18405C105.081 9.73871 104.953 10.144 104.697 10.4C104.441 10.656 104.025 10.816 103.449 10.88L102.681 10.976C101.103 11.1254 99.9719 11.5947 99.2892 12.384C98.6066 13.1734 98.1479 14.2507 97.9132 15.616L96.7932 22.688C96.7292 23.2 96.5372 23.584 96.2172 23.84C95.8972 24.096 95.4599 24.224 94.9052 24.224Z" stroke="black" stroke-width="2" mask="url(#path-1-outside-1_255_3)"/>
<path d="M110.334 24.288C109.417 24.288 108.564 24.0854 107.774 23.68C106.985 23.2534 106.356 22.688 105.886 21.984C105.417 21.2587 105.182 20.448 105.182 19.552C105.182 18.4427 105.481 17.5467 106.078 16.864C106.697 16.1814 107.657 15.68 108.958 15.36C110.26 15.0187 111.935 14.848 113.982 14.848H116.542L116.254 16.832H114.27C112.798 16.832 111.625 16.9067 110.75 17.056C109.897 17.2054 109.289 17.472 108.926 17.856C108.564 18.2187 108.382 18.72 108.382 19.36C108.382 20.2134 108.66 20.864 109.214 21.312C109.79 21.76 110.473 21.984 111.262 21.984C111.988 21.984 112.66 21.824 113.278 21.504C113.897 21.184 114.42 20.7254 114.846 20.128C115.294 19.5094 115.582 18.7734 115.71 17.92L116.318 14.08C116.51 12.9494 116.35 12.0854 115.838 11.488C115.348 10.8907 114.462 10.592 113.182 10.592C112.436 10.592 111.71 10.6667 111.006 10.816C110.324 10.9654 109.631 11.2214 108.926 11.584C108.606 11.7547 108.308 11.8187 108.03 11.776C107.753 11.712 107.529 11.5947 107.358 11.424C107.188 11.232 107.092 11.008 107.07 10.752C107.049 10.496 107.113 10.24 107.262 9.98405C107.433 9.72805 107.71 9.50405 108.094 9.31205C108.948 8.88538 109.854 8.57605 110.814 8.38405C111.774 8.19205 112.692 8.09605 113.566 8.09605C115.124 8.09605 116.35 8.38405 117.246 8.96005C118.164 9.53605 118.782 10.336 119.102 11.36C119.444 12.384 119.508 13.568 119.294 14.912L118.078 22.624C118.014 23.1574 117.822 23.5627 117.502 23.84C117.204 24.096 116.809 24.224 116.318 24.224C115.849 24.224 115.497 24.0747 115.262 23.776C115.028 23.456 114.953 23.008 115.038 22.432L115.39 20.096L115.646 20.576C115.369 21.408 114.942 22.112 114.366 22.688C113.812 23.2427 113.182 23.648 112.478 23.904C111.796 24.16 111.081 24.288 110.334 24.288Z" stroke="black" stroke-width="2" mask="url(#path-1-outside-1_255_3)"/>
<path d="M123.874 24.224C123.362 24.224 122.989 24.064 122.754 23.744C122.519 23.424 122.445 22.976 122.53 22.4L124.546 9.72805C124.631 9.19471 124.823 8.80005 125.122 8.54405C125.442 8.28805 125.858 8.16005 126.37 8.16005C126.861 8.16005 127.223 8.32005 127.458 8.64005C127.693 8.93871 127.767 9.38671 127.682 9.98405L127.33 12.128H127.01C127.437 10.8694 128.162 9.89871 129.186 9.21605C130.21 8.51205 131.383 8.12805 132.706 8.06405C133.239 8.04271 133.591 8.11738 133.762 8.28805C133.954 8.45871 134.05 8.75738 134.05 9.18405C134.05 9.73871 133.922 10.144 133.666 10.4C133.41 10.656 132.994 10.816 132.418 10.88L131.65 10.976C130.071 11.1254 128.941 11.5947 128.258 12.384C127.575 13.1734 127.117 14.2507 126.882 15.616L125.762 22.688C125.698 23.2 125.506 23.584 125.186 23.84C124.866 24.096 124.429 24.224 123.874 24.224Z" stroke="black" stroke-width="2" mask="url(#path-1-outside-1_255_3)"/>
<path d="M135.843 24.224C135.353 24.224 134.99 24.064 134.755 23.744C134.521 23.424 134.446 22.976 134.531 22.4L136.548 9.72805C136.633 9.19471 136.825 8.80005 137.123 8.54405C137.443 8.28805 137.849 8.16005 138.339 8.16005C138.83 8.16005 139.193 8.32005 139.427 8.64005C139.662 8.96005 139.737 9.40805 139.651 9.98405L139.268 12.416L139.011 11.84C139.609 10.5814 140.387 9.64271 141.348 9.02405C142.329 8.40538 143.396 8.09605 144.548 8.09605C145.764 8.09605 146.755 8.42671 147.523 9.08805C148.313 9.72805 148.814 10.6774 149.027 11.936L148.611 11.808C149.145 10.6134 149.902 9.69605 150.883 9.05605C151.886 8.41605 153.06 8.09605 154.404 8.09605C155.492 8.09605 156.409 8.33071 157.156 8.80005C157.924 9.26938 158.457 9.98405 158.755 10.944C159.054 11.904 159.086 13.1307 158.852 14.624L157.572 22.688C157.508 23.1787 157.326 23.5627 157.027 23.84C156.729 24.096 156.313 24.224 155.779 24.224C155.246 24.224 154.862 24.064 154.628 23.744C154.393 23.424 154.318 22.976 154.404 22.4L155.619 14.528C155.811 13.248 155.715 12.288 155.331 11.648C154.947 11.008 154.254 10.688 153.251 10.688C152.078 10.688 151.097 11.1254 150.307 12C149.539 12.8534 149.027 14.048 148.771 15.584L147.684 22.688C147.598 23.1787 147.396 23.5627 147.076 23.84C146.755 24.096 146.339 24.224 145.827 24.224C145.316 24.224 144.931 24.064 144.675 23.744C144.441 23.424 144.366 22.976 144.451 22.4L145.731 14.528C145.923 13.248 145.817 12.288 145.411 11.648C145.027 11.008 144.345 10.688 143.363 10.688C142.169 10.688 141.177 11.1254 140.387 12C139.619 12.8534 139.107 14.048 138.852 15.584L137.731 22.688C137.582 23.712 136.953 24.224 135.843 24.224Z" stroke="black" stroke-width="2" mask="url(#path-1-outside-1_255_3)"/>
<path d="M169.706 24.288C168.17 24.288 166.837 24.0107 165.706 23.456C164.597 22.88 163.733 22.0694 163.114 21.024C162.517 19.9787 162.218 18.7414 162.218 17.312C162.218 15.6054 162.57 14.0587 163.274 12.672C163.978 11.2854 164.96 10.176 166.218 9.34405C167.498 8.51205 168.981 8.09605 170.666 8.09605C171.925 8.09605 172.981 8.32005 173.834 8.76805C174.688 9.19471 175.36 9.78138 175.85 10.528C176.341 11.2747 176.661 12.1174 176.81 13.056C176.981 13.9947 177.013 14.9547 176.906 15.936C176.864 16.3414 176.757 16.608 176.586 16.736C176.416 16.864 176.17 16.928 175.85 16.928H164.778L165.034 14.944H174.858L174.282 15.392C174.432 14.4534 174.4 13.6107 174.186 12.864C173.994 12.1174 173.61 11.52 173.034 11.072C172.458 10.6027 171.658 10.368 170.634 10.368C169.589 10.368 168.704 10.6134 167.978 11.104C167.274 11.5734 166.72 12.1814 166.314 12.928C165.93 13.6747 165.664 14.464 165.514 15.296L165.386 16.16C165.088 17.8667 165.344 19.232 166.154 20.256C166.986 21.28 168.245 21.792 169.93 21.792C170.634 21.792 171.338 21.7067 172.042 21.536C172.746 21.3654 173.397 21.088 173.994 20.704C174.336 20.512 174.634 20.4267 174.89 20.448C175.168 20.448 175.381 20.5334 175.53 20.704C175.701 20.8747 175.808 21.088 175.85 21.344C175.893 21.5787 175.85 21.8347 175.722 22.112C175.616 22.368 175.413 22.592 175.114 22.784C174.389 23.296 173.525 23.68 172.522 23.936C171.52 24.1707 170.581 24.288 169.706 24.288Z" stroke="black" stroke-width="2" mask="url(#path-1-outside-1_255_3)"/>
</svg>
