<svg width="216" height="74" viewBox="0 0 216 74" fill="none" xmlns="http://www.w3.org/2000/svg">
<g filter="url(#filter0_d_1_38)">
<path d="M3.99988 32.8618C3.99988 14.7127 18.7126 0 36.8617 0H179.012C197.161 0 211.874 14.7127 211.874 32.8618C211.874 51.0109 197.161 65.7236 179.012 65.7236H36.8616C18.7126 65.7236 3.99988 51.0109 3.99988 32.8618Z" fill="#D7A86E"/>
<path d="M4.49988 32.8618C4.49988 14.9889 18.9888 0.5 36.8617 0.5H179.012C196.885 0.5 211.374 14.9889 211.374 32.8618C211.374 50.7347 196.885 65.2236 179.012 65.2236H36.8616C18.9887 65.2236 4.49988 50.7347 4.49988 32.8618Z" stroke="black"/>
</g>
<defs>
<filter id="filter0_d_1_38" x="-0.00012207" y="0" width="215.874" height="73.7236" filterUnits="userSpaceOnUse" color-interpolation-filters="sRGB">
<feFlood flood-opacity="0" result="BackgroundImageFix"/>
<feColorMatrix in="SourceAlpha" type="matrix" values="0 0 0 0 0 0 0 0 0 0 0 0 0 0 0 0 0 0 127 0" result="hardAlpha"/>
<feOffset dy="4"/>
<feGaussianBlur stdDeviation="2"/>
<feComposite in2="hardAlpha" operator="out"/>
<feColorMatrix type="matrix" values="0 0 0 0 0 0 0 0 0 0 0 0 0 0 0 0 0 0 0.25 0"/>
<feBlend mode="normal" in2="BackgroundImageFix" result="effect1_dropShadow_1_38"/>
<feBlend mode="normal" in="SourceGraphic" in2="effect1_dropShadow_1_38" result="shape"/>
</filter>
</defs>
</svg>
