<svg width="227" height="53" viewBox="0 0 227 53" fill="none" xmlns="http://www.w3.org/2000/svg">
<mask id="path-1-outside-1_255_2" maskUnits="userSpaceOnUse" x="0" y="0" width="227" height="53" fill="black">
<rect fill="white" width="227" height="53"/>
<path d="M3 26.5C3 13.5213 13.5213 3 26.5 3H200.5C213.479 3 224 13.5213 224 26.5C224 39.4787 213.479 50 200.5 50H26.5C13.5213 50 3 39.4787 3 26.5Z"/>
<path d="M54.512 36.256C53.8507 36.256 53.3387 36.0747 52.976 35.712C52.6347 35.328 52.464 34.8053 52.464 34.144V15.296C52.464 14.6133 52.6347 14.0907 52.976 13.728C53.3387 13.3653 53.8507 13.184 54.512 13.184C55.1733 13.184 55.6747 13.3653 56.016 13.728C56.3787 14.0907 56.56 14.6133 56.56 15.296V34.144C56.56 34.8053 56.3893 35.328 56.048 35.712C55.7067 36.0747 55.1947 36.256 54.512 36.256Z"/>
<path d="M63.0952 36.256C62.4552 36.256 61.9646 36.0853 61.6232 35.744C61.2819 35.3813 61.1113 34.8693 61.1113 34.208V22.112C61.1113 21.4507 61.2819 20.9493 61.6232 20.608C61.9646 20.2667 62.4446 20.096 63.0633 20.096C63.6819 20.096 64.1619 20.2667 64.5033 20.608C64.8446 20.9493 65.0153 21.4507 65.0153 22.112V24.288L64.6632 23.488C65.1326 22.3573 65.8579 21.504 66.8392 20.928C67.8419 20.3307 68.9726 20.032 70.2312 20.032C71.4899 20.032 72.5246 20.2667 73.3353 20.736C74.1459 21.2053 74.7539 21.92 75.1592 22.88C75.5646 23.8187 75.7673 25.0133 75.7673 26.464V34.208C75.7673 34.8693 75.5966 35.3813 75.2552 35.744C74.9139 36.0853 74.4232 36.256 73.7832 36.256C73.1432 36.256 72.6419 36.0853 72.2793 35.744C71.9379 35.3813 71.7673 34.8693 71.7673 34.208V26.656C71.7673 25.44 71.5326 24.5547 71.0632 24C70.6152 23.4453 69.9112 23.168 68.9512 23.168C67.7779 23.168 66.8392 23.5413 66.1353 24.288C65.4526 25.0133 65.1113 25.984 65.1113 27.2V34.208C65.1113 35.5733 64.4393 36.256 63.0952 36.256Z"/>
<path d="M87.126 42.08C85.974 42.08 84.854 41.9733 83.766 41.76C82.6993 41.5467 81.7287 41.216 80.854 40.768C80.4487 40.5547 80.1713 40.2987 80.022 40C79.894 39.7013 79.8513 39.392 79.894 39.072C79.958 38.7733 80.086 38.5067 80.278 38.272C80.4913 38.0373 80.7473 37.8773 81.046 37.792C81.3447 37.7067 81.654 37.7493 81.974 37.92C82.9127 38.3893 83.798 38.688 84.63 38.816C85.4833 38.9653 86.2087 39.04 86.806 39.04C88.2353 39.04 89.302 38.688 90.006 37.984C90.7313 37.3013 91.094 36.2773 91.094 34.912V32.032H91.382C91.062 33.12 90.39 33.9947 89.366 34.656C88.3633 35.296 87.222 35.616 85.942 35.616C84.534 35.616 83.3073 35.296 82.262 34.656C81.2167 33.9947 80.406 33.0773 79.83 31.904C79.254 30.7307 78.966 29.3653 78.966 27.808C78.966 26.6347 79.126 25.5787 79.446 24.64C79.7873 23.68 80.2567 22.8587 80.854 22.176C81.4727 21.4933 82.2087 20.9707 83.062 20.608C83.9367 20.224 84.8967 20.032 85.942 20.032C87.2647 20.032 88.4167 20.3627 89.398 21.024C90.4007 21.664 91.0513 22.5173 91.35 23.584L91.03 24.384V22.112C91.03 21.4507 91.2007 20.9493 91.542 20.608C91.9047 20.2667 92.3953 20.096 93.014 20.096C93.654 20.096 94.1447 20.2667 94.486 20.608C94.8273 20.9493 94.998 21.4507 94.998 22.112V34.432C94.998 36.9707 94.326 38.88 92.982 40.16C91.638 41.44 89.686 42.08 87.126 42.08ZM87.03 32.576C87.862 32.576 88.5767 32.384 89.174 32C89.7713 31.616 90.23 31.072 90.55 30.368C90.8913 29.6427 91.062 28.7893 91.062 27.808C91.062 26.336 90.6993 25.184 89.974 24.352C89.2487 23.4987 88.2673 23.072 87.03 23.072C86.198 23.072 85.4833 23.264 84.886 23.648C84.2887 24.032 83.8193 24.576 83.478 25.28C83.158 25.984 82.998 26.8267 82.998 27.808C82.998 29.28 83.3607 30.4427 84.086 31.296C84.8113 32.1493 85.7927 32.576 87.03 32.576Z"/>
<path d="M101.19 36.256C100.529 36.256 100.017 36.0853 99.6545 35.744C99.3132 35.3813 99.1425 34.8693 99.1425 34.208V22.112C99.1425 21.4507 99.3132 20.9493 99.6545 20.608C99.9958 20.2667 100.476 20.096 101.094 20.096C101.713 20.096 102.193 20.2667 102.535 20.608C102.876 20.9493 103.047 21.4507 103.047 22.112V24.128H102.727C103.025 22.848 103.612 21.8773 104.487 21.216C105.361 20.5547 106.524 20.16 107.975 20.032C108.423 19.9893 108.775 20.1067 109.031 20.384C109.308 20.64 109.468 21.0453 109.51 21.6C109.553 22.1333 109.425 22.5707 109.127 22.912C108.849 23.232 108.423 23.424 107.846 23.488L107.143 23.552C105.841 23.68 104.86 24.0853 104.199 24.768C103.537 25.4293 103.206 26.368 103.206 27.584V34.208C103.206 34.8693 103.036 35.3813 102.695 35.744C102.353 36.0853 101.852 36.256 101.19 36.256Z"/>
<path d="M119.136 36.32C117.365 36.32 115.84 35.9893 114.56 35.328C113.28 34.6667 112.288 33.728 111.584 32.512C110.901 31.296 110.56 29.856 110.56 28.192C110.56 26.5707 110.89 25.152 111.552 23.936C112.234 22.72 113.162 21.7707 114.336 21.088C115.53 20.384 116.885 20.032 118.4 20.032C119.509 20.032 120.501 20.2133 121.376 20.576C122.272 20.9387 123.029 21.4613 123.648 22.144C124.288 22.8267 124.768 23.6587 125.088 24.64C125.429 25.6 125.6 26.688 125.6 27.904C125.6 28.288 125.461 28.5867 125.184 28.8C124.928 28.992 124.554 29.088 124.064 29.088H113.792V26.784H122.784L122.272 27.264C122.272 26.2827 122.122 25.4613 121.824 24.8C121.546 24.1387 121.13 23.6373 120.576 23.296C120.042 22.9333 119.37 22.752 118.56 22.752C117.664 22.752 116.896 22.9653 116.256 23.392C115.637 23.7973 115.157 24.384 114.816 25.152C114.496 25.8987 114.336 26.7947 114.336 27.84V28.064C114.336 29.8133 114.741 31.1253 115.552 32C116.384 32.8533 117.6 33.28 119.2 33.28C119.754 33.28 120.373 33.216 121.056 33.088C121.76 32.9387 122.421 32.6933 123.04 32.352C123.488 32.096 123.882 31.9893 124.224 32.032C124.565 32.0533 124.832 32.1707 125.024 32.384C125.237 32.5973 125.365 32.864 125.408 33.184C125.45 33.4827 125.386 33.792 125.216 34.112C125.066 34.432 124.8 34.7093 124.416 34.944C123.669 35.4133 122.805 35.7653 121.824 36C120.864 36.2133 119.968 36.32 119.136 36.32Z"/>
<path d="M134.495 36.32C133.578 36.32 132.607 36.224 131.583 36.032C130.559 35.84 129.642 35.5093 128.831 35.04C128.49 34.8267 128.245 34.5813 128.095 34.304C127.967 34.0053 127.914 33.7173 127.936 33.44C127.978 33.1413 128.085 32.8853 128.256 32.672C128.448 32.4587 128.682 32.32 128.96 32.256C129.258 32.192 129.578 32.2453 129.92 32.416C130.773 32.8213 131.573 33.1093 132.32 33.28C133.066 33.4293 133.802 33.504 134.527 33.504C135.551 33.504 136.309 33.3333 136.799 32.992C137.311 32.6293 137.568 32.16 137.568 31.584C137.568 31.0933 137.397 30.72 137.055 30.464C136.736 30.1867 136.245 29.984 135.583 29.856L132.383 29.248C131.061 28.992 130.048 28.512 129.343 27.808C128.661 27.0827 128.32 26.1547 128.32 25.024C128.32 24 128.597 23.1147 129.151 22.368C129.727 21.6213 130.517 21.0453 131.52 20.64C132.522 20.2347 133.674 20.032 134.975 20.032C135.914 20.032 136.789 20.1387 137.6 20.352C138.432 20.544 139.231 20.8533 139.999 21.28C140.32 21.4507 140.533 21.6747 140.639 21.952C140.768 22.2293 140.799 22.5173 140.736 22.816C140.672 23.0933 140.544 23.3493 140.352 23.584C140.16 23.7973 139.914 23.936 139.615 24C139.338 24.0427 139.018 23.9787 138.656 23.808C137.994 23.4667 137.354 23.2213 136.736 23.072C136.138 22.9227 135.562 22.848 135.008 22.848C133.962 22.848 133.183 23.0293 132.671 23.392C132.181 23.7547 131.936 24.2347 131.936 24.832C131.936 25.28 132.085 25.6533 132.383 25.952C132.682 26.2507 133.141 26.4533 133.76 26.56L136.96 27.168C138.346 27.424 139.392 27.8933 140.096 28.576C140.821 29.2587 141.184 30.176 141.184 31.328C141.184 32.8853 140.576 34.112 139.359 35.008C138.143 35.8827 136.522 36.32 134.495 36.32Z"/>
<path d="M149.544 36.32C148.414 36.32 147.4 36.1067 146.505 35.68C145.63 35.232 144.936 34.6347 144.424 33.888C143.934 33.1413 143.689 32.2987 143.689 31.36C143.689 30.208 143.987 29.3013 144.585 28.64C145.182 27.9573 146.153 27.4667 147.497 27.168C148.84 26.8693 150.643 26.72 152.904 26.72H154.505V29.024H152.936C151.614 29.024 150.558 29.088 149.768 29.216C148.979 29.344 148.414 29.568 148.072 29.888C147.752 30.1867 147.592 30.6133 147.592 31.168C147.592 31.872 147.838 32.448 148.329 32.896C148.819 33.344 149.502 33.568 150.376 33.568C151.08 33.568 151.699 33.408 152.232 33.088C152.787 32.7467 153.224 32.288 153.544 31.712C153.865 31.136 154.025 30.4747 154.025 29.728V26.048C154.025 24.9813 153.79 24.2133 153.32 23.744C152.851 23.2747 152.062 23.04 150.952 23.04C150.334 23.04 149.662 23.1147 148.936 23.264C148.232 23.4133 147.486 23.6693 146.697 24.032C146.291 24.224 145.929 24.2773 145.609 24.192C145.31 24.1067 145.075 23.936 144.904 23.68C144.734 23.4027 144.648 23.104 144.648 22.784C144.648 22.464 144.734 22.1547 144.904 21.856C145.075 21.536 145.363 21.3013 145.768 21.152C146.75 20.7467 147.689 20.4587 148.585 20.288C149.502 20.1173 150.334 20.032 151.081 20.032C152.617 20.032 153.875 20.2667 154.857 20.736C155.859 21.2053 156.606 21.92 157.096 22.88C157.587 23.8187 157.833 25.0347 157.833 26.528V34.208C157.833 34.8693 157.673 35.3813 157.353 35.744C157.033 36.0853 156.574 36.256 155.977 36.256C155.379 36.256 154.91 36.0853 154.568 35.744C154.249 35.3813 154.089 34.8693 154.089 34.208V32.672H154.344C154.195 33.4187 153.896 34.0693 153.449 34.624C153.022 35.1573 152.478 35.5733 151.816 35.872C151.155 36.1707 150.398 36.32 149.544 36.32Z"/>
<path d="M163.941 36.256C163.279 36.256 162.767 36.0853 162.404 35.744C162.063 35.3813 161.893 34.8693 161.893 34.208V22.112C161.893 21.4507 162.063 20.9493 162.404 20.608C162.746 20.2667 163.226 20.096 163.844 20.096C164.463 20.096 164.943 20.2667 165.285 20.608C165.626 20.9493 165.796 21.4507 165.796 22.112V24.128H165.477C165.775 22.848 166.362 21.8773 167.236 21.216C168.111 20.5547 169.274 20.16 170.725 20.032C171.173 19.9893 171.525 20.1067 171.781 20.384C172.058 20.64 172.218 21.0453 172.26 21.6C172.303 22.1333 172.175 22.5707 171.876 22.912C171.599 23.232 171.173 23.424 170.596 23.488L169.893 23.552C168.591 23.68 167.61 24.0853 166.949 24.768C166.287 25.4293 165.956 26.368 165.956 27.584V34.208C165.956 34.8693 165.786 35.3813 165.445 35.744C165.103 36.0853 164.602 36.256 163.941 36.256Z"/>
</mask>
<path d="M3 26.5C3 13.5213 13.5213 3 26.5 3H200.5C213.479 3 224 13.5213 224 26.5C224 39.4787 213.479 50 200.5 50H26.5C13.5213 50 3 39.4787 3 26.5Z" fill="#D7A86E"/>
<path d="M54.512 36.256C53.8507 36.256 53.3387 36.0747 52.976 35.712C52.6347 35.328 52.464 34.8053 52.464 34.144V15.296C52.464 14.6133 52.6347 14.0907 52.976 13.728C53.3387 13.3653 53.8507 13.184 54.512 13.184C55.1733 13.184 55.6747 13.3653 56.016 13.728C56.3787 14.0907 56.56 14.6133 56.56 15.296V34.144C56.56 34.8053 56.3893 35.328 56.048 35.712C55.7067 36.0747 55.1947 36.256 54.512 36.256Z" fill="white"/>
<path d="M63.0952 36.256C62.4552 36.256 61.9646 36.0853 61.6232 35.744C61.2819 35.3813 61.1113 34.8693 61.1113 34.208V22.112C61.1113 21.4507 61.2819 20.9493 61.6232 20.608C61.9646 20.2667 62.4446 20.096 63.0633 20.096C63.6819 20.096 64.1619 20.2667 64.5033 20.608C64.8446 20.9493 65.0153 21.4507 65.0153 22.112V24.288L64.6632 23.488C65.1326 22.3573 65.8579 21.504 66.8392 20.928C67.8419 20.3307 68.9726 20.032 70.2312 20.032C71.4899 20.032 72.5246 20.2667 73.3353 20.736C74.1459 21.2053 74.7539 21.92 75.1592 22.88C75.5646 23.8187 75.7673 25.0133 75.7673 26.464V34.208C75.7673 34.8693 75.5966 35.3813 75.2552 35.744C74.9139 36.0853 74.4232 36.256 73.7832 36.256C73.1432 36.256 72.6419 36.0853 72.2793 35.744C71.9379 35.3813 71.7673 34.8693 71.7673 34.208V26.656C71.7673 25.44 71.5326 24.5547 71.0632 24C70.6152 23.4453 69.9112 23.168 68.9512 23.168C67.7779 23.168 66.8392 23.5413 66.1353 24.288C65.4526 25.0133 65.1113 25.984 65.1113 27.2V34.208C65.1113 35.5733 64.4393 36.256 63.0952 36.256Z" fill="white"/>
<path d="M87.126 42.08C85.974 42.08 84.854 41.9733 83.766 41.76C82.6993 41.5467 81.7287 41.216 80.854 40.768C80.4487 40.5547 80.1713 40.2987 80.022 40C79.894 39.7013 79.8513 39.392 79.894 39.072C79.958 38.7733 80.086 38.5067 80.278 38.272C80.4913 38.0373 80.7473 37.8773 81.046 37.792C81.3447 37.7067 81.654 37.7493 81.974 37.92C82.9127 38.3893 83.798 38.688 84.63 38.816C85.4833 38.9653 86.2087 39.04 86.806 39.04C88.2353 39.04 89.302 38.688 90.006 37.984C90.7313 37.3013 91.094 36.2773 91.094 34.912V32.032H91.382C91.062 33.12 90.39 33.9947 89.366 34.656C88.3633 35.296 87.222 35.616 85.942 35.616C84.534 35.616 83.3073 35.296 82.262 34.656C81.2167 33.9947 80.406 33.0773 79.83 31.904C79.254 30.7307 78.966 29.3653 78.966 27.808C78.966 26.6347 79.126 25.5787 79.446 24.64C79.7873 23.68 80.2567 22.8587 80.854 22.176C81.4727 21.4933 82.2087 20.9707 83.062 20.608C83.9367 20.224 84.8967 20.032 85.942 20.032C87.2647 20.032 88.4167 20.3627 89.398 21.024C90.4007 21.664 91.0513 22.5173 91.35 23.584L91.03 24.384V22.112C91.03 21.4507 91.2007 20.9493 91.542 20.608C91.9047 20.2667 92.3953 20.096 93.014 20.096C93.654 20.096 94.1447 20.2667 94.486 20.608C94.8273 20.9493 94.998 21.4507 94.998 22.112V34.432C94.998 36.9707 94.326 38.88 92.982 40.16C91.638 41.44 89.686 42.08 87.126 42.08ZM87.03 32.576C87.862 32.576 88.5767 32.384 89.174 32C89.7713 31.616 90.23 31.072 90.55 30.368C90.8913 29.6427 91.062 28.7893 91.062 27.808C91.062 26.336 90.6993 25.184 89.974 24.352C89.2487 23.4987 88.2673 23.072 87.03 23.072C86.198 23.072 85.4833 23.264 84.886 23.648C84.2887 24.032 83.8193 24.576 83.478 25.28C83.158 25.984 82.998 26.8267 82.998 27.808C82.998 29.28 83.3607 30.4427 84.086 31.296C84.8113 32.1493 85.7927 32.576 87.03 32.576Z" fill="white"/>
<path d="M101.19 36.256C100.529 36.256 100.017 36.0853 99.6545 35.744C99.3132 35.3813 99.1425 34.8693 99.1425 34.208V22.112C99.1425 21.4507 99.3132 20.9493 99.6545 20.608C99.9958 20.2667 100.476 20.096 101.094 20.096C101.713 20.096 102.193 20.2667 102.535 20.608C102.876 20.9493 103.047 21.4507 103.047 22.112V24.128H102.727C103.025 22.848 103.612 21.8773 104.487 21.216C105.361 20.5547 106.524 20.16 107.975 20.032C108.423 19.9893 108.775 20.1067 109.031 20.384C109.308 20.64 109.468 21.0453 109.51 21.6C109.553 22.1333 109.425 22.5707 109.127 22.912C108.849 23.232 108.423 23.424 107.846 23.488L107.143 23.552C105.841 23.68 104.86 24.0853 104.199 24.768C103.537 25.4293 103.206 26.368 103.206 27.584V34.208C103.206 34.8693 103.036 35.3813 102.695 35.744C102.353 36.0853 101.852 36.256 101.19 36.256Z" fill="white"/>
<path d="M119.136 36.32C117.365 36.32 115.84 35.9893 114.56 35.328C113.28 34.6667 112.288 33.728 111.584 32.512C110.901 31.296 110.56 29.856 110.56 28.192C110.56 26.5707 110.89 25.152 111.552 23.936C112.234 22.72 113.162 21.7707 114.336 21.088C115.53 20.384 116.885 20.032 118.4 20.032C119.509 20.032 120.501 20.2133 121.376 20.576C122.272 20.9387 123.029 21.4613 123.648 22.144C124.288 22.8267 124.768 23.6587 125.088 24.64C125.429 25.6 125.6 26.688 125.6 27.904C125.6 28.288 125.461 28.5867 125.184 28.8C124.928 28.992 124.554 29.088 124.064 29.088H113.792V26.784H122.784L122.272 27.264C122.272 26.2827 122.122 25.4613 121.824 24.8C121.546 24.1387 121.13 23.6373 120.576 23.296C120.042 22.9333 119.37 22.752 118.56 22.752C117.664 22.752 116.896 22.9653 116.256 23.392C115.637 23.7973 115.157 24.384 114.816 25.152C114.496 25.8987 114.336 26.7947 114.336 27.84V28.064C114.336 29.8133 114.741 31.1253 115.552 32C116.384 32.8533 117.6 33.28 119.2 33.28C119.754 33.28 120.373 33.216 121.056 33.088C121.76 32.9387 122.421 32.6933 123.04 32.352C123.488 32.096 123.882 31.9893 124.224 32.032C124.565 32.0533 124.832 32.1707 125.024 32.384C125.237 32.5973 125.365 32.864 125.408 33.184C125.45 33.4827 125.386 33.792 125.216 34.112C125.066 34.432 124.8 34.7093 124.416 34.944C123.669 35.4133 122.805 35.7653 121.824 36C120.864 36.2133 119.968 36.32 119.136 36.32Z" fill="white"/>
<path d="M134.495 36.32C133.578 36.32 132.607 36.224 131.583 36.032C130.559 35.84 129.642 35.5093 128.831 35.04C128.49 34.8267 128.245 34.5813 128.095 34.304C127.967 34.0053 127.914 33.7173 127.936 33.44C127.978 33.1413 128.085 32.8853 128.256 32.672C128.448 32.4587 128.682 32.32 128.96 32.256C129.258 32.192 129.578 32.2453 129.92 32.416C130.773 32.8213 131.573 33.1093 132.32 33.28C133.066 33.4293 133.802 33.504 134.527 33.504C135.551 33.504 136.309 33.3333 136.799 32.992C137.311 32.6293 137.568 32.16 137.568 31.584C137.568 31.0933 137.397 30.72 137.055 30.464C136.736 30.1867 136.245 29.984 135.583 29.856L132.383 29.248C131.061 28.992 130.048 28.512 129.343 27.808C128.661 27.0827 128.32 26.1547 128.32 25.024C128.32 24 128.597 23.1147 129.151 22.368C129.727 21.6213 130.517 21.0453 131.52 20.64C132.522 20.2347 133.674 20.032 134.975 20.032C135.914 20.032 136.789 20.1387 137.6 20.352C138.432 20.544 139.231 20.8533 139.999 21.28C140.32 21.4507 140.533 21.6747 140.639 21.952C140.768 22.2293 140.799 22.5173 140.736 22.816C140.672 23.0933 140.544 23.3493 140.352 23.584C140.16 23.7973 139.914 23.936 139.615 24C139.338 24.0427 139.018 23.9787 138.656 23.808C137.994 23.4667 137.354 23.2213 136.736 23.072C136.138 22.9227 135.562 22.848 135.008 22.848C133.962 22.848 133.183 23.0293 132.671 23.392C132.181 23.7547 131.936 24.2347 131.936 24.832C131.936 25.28 132.085 25.6533 132.383 25.952C132.682 26.2507 133.141 26.4533 133.76 26.56L136.96 27.168C138.346 27.424 139.392 27.8933 140.096 28.576C140.821 29.2587 141.184 30.176 141.184 31.328C141.184 32.8853 140.576 34.112 139.359 35.008C138.143 35.8827 136.522 36.32 134.495 36.32Z" fill="white"/>
<path d="M149.544 36.32C148.414 36.32 147.4 36.1067 146.505 35.68C145.63 35.232 144.936 34.6347 144.424 33.888C143.934 33.1413 143.689 32.2987 143.689 31.36C143.689 30.208 143.987 29.3013 144.585 28.64C145.182 27.9573 146.153 27.4667 147.497 27.168C148.84 26.8693 150.643 26.72 152.904 26.72H154.505V29.024H152.936C151.614 29.024 150.558 29.088 149.768 29.216C148.979 29.344 148.414 29.568 148.072 29.888C147.752 30.1867 147.592 30.6133 147.592 31.168C147.592 31.872 147.838 32.448 148.329 32.896C148.819 33.344 149.502 33.568 150.376 33.568C151.08 33.568 151.699 33.408 152.232 33.088C152.787 32.7467 153.224 32.288 153.544 31.712C153.865 31.136 154.025 30.4747 154.025 29.728V26.048C154.025 24.9813 153.79 24.2133 153.32 23.744C152.851 23.2747 152.062 23.04 150.952 23.04C150.334 23.04 149.662 23.1147 148.936 23.264C148.232 23.4133 147.486 23.6693 146.697 24.032C146.291 24.224 145.929 24.2773 145.609 24.192C145.31 24.1067 145.075 23.936 144.904 23.68C144.734 23.4027 144.648 23.104 144.648 22.784C144.648 22.464 144.734 22.1547 144.904 21.856C145.075 21.536 145.363 21.3013 145.768 21.152C146.75 20.7467 147.689 20.4587 148.585 20.288C149.502 20.1173 150.334 20.032 151.081 20.032C152.617 20.032 153.875 20.2667 154.857 20.736C155.859 21.2053 156.606 21.92 157.096 22.88C157.587 23.8187 157.833 25.0347 157.833 26.528V34.208C157.833 34.8693 157.673 35.3813 157.353 35.744C157.033 36.0853 156.574 36.256 155.977 36.256C155.379 36.256 154.91 36.0853 154.568 35.744C154.249 35.3813 154.089 34.8693 154.089 34.208V32.672H154.344C154.195 33.4187 153.896 34.0693 153.449 34.624C153.022 35.1573 152.478 35.5733 151.816 35.872C151.155 36.1707 150.398 36.32 149.544 36.32Z" fill="white"/>
<path d="M163.941 36.256C163.279 36.256 162.767 36.0853 162.404 35.744C162.063 35.3813 161.893 34.8693 161.893 34.208V22.112C161.893 21.4507 162.063 20.9493 162.404 20.608C162.746 20.2667 163.226 20.096 163.844 20.096C164.463 20.096 164.943 20.2667 165.285 20.608C165.626 20.9493 165.796 21.4507 165.796 22.112V24.128H165.477C165.775 22.848 166.362 21.8773 167.236 21.216C168.111 20.5547 169.274 20.16 170.725 20.032C171.173 19.9893 171.525 20.1067 171.781 20.384C172.058 20.64 172.218 21.0453 172.26 21.6C172.303 22.1333 172.175 22.5707 171.876 22.912C171.599 23.232 171.173 23.424 170.596 23.488L169.893 23.552C168.591 23.68 167.61 24.0853 166.949 24.768C166.287 25.4293 165.956 26.368 165.956 27.584V34.208C165.956 34.8693 165.786 35.3813 165.445 35.744C165.103 36.0853 164.602 36.256 163.941 36.256Z" fill="white"/>
<path d="M52.976 35.712L51.1075 37.3729L51.1563 37.4278L51.2082 37.4798L52.976 35.712ZM52.976 13.728L51.2082 11.9602L51.1815 11.987L51.1555 12.0146L52.976 13.728ZM56.016 13.728L54.1955 15.4414L54.2215 15.469L54.2482 15.4958L56.016 13.728ZM56.048 35.712L57.8685 37.4254L57.8929 37.3995L57.9165 37.3729L56.048 35.712ZM61.6232 35.744L59.8027 37.4574L59.8287 37.485L59.8555 37.5118L61.6232 35.744ZM61.6232 20.608L59.8555 18.8402L59.8555 18.8402L61.6232 20.608ZM64.5033 20.608L66.271 18.8402L66.271 18.8402L64.5033 20.608ZM65.0153 24.288L62.727 25.2948L67.5153 24.288H65.0153ZM64.6632 23.488L62.3543 22.5296L61.9445 23.5166L62.375 24.4948L64.6632 23.488ZM66.8392 20.928L68.1048 23.084L68.1118 23.0799L68.1188 23.0758L66.8392 20.928ZM73.3353 20.736L74.5878 18.5724L74.5878 18.5724L73.3353 20.736ZM75.1592 22.88L72.8561 23.8524L72.8601 23.8618L72.8641 23.8711L75.1592 22.88ZM75.2552 35.744L77.023 37.5118L77.0498 37.485L77.0758 37.4574L75.2552 35.744ZM72.2793 35.744L70.4587 37.4574L70.5107 37.5126L70.5658 37.5645L72.2793 35.744ZM71.0632 24L69.1184 25.5708L69.1363 25.5931L69.1548 25.6149L71.0632 24ZM66.1353 24.288L64.3163 22.573L64.3148 22.5746L66.1353 24.288ZM83.766 41.76L83.2757 44.2115L83.285 44.2133L83.766 41.76ZM80.854 40.768L79.6896 42.9803L79.7019 42.9868L79.7143 42.9931L80.854 40.768ZM80.022 40L77.7241 40.9848L77.7531 41.0523L77.7859 41.118L80.022 40ZM79.894 39.072L77.4495 38.5482L77.4289 38.6442L77.4159 38.7416L79.894 39.072ZM80.278 38.272L78.4281 36.5903L78.3843 36.6385L78.3431 36.6889L80.278 38.272ZM81.046 37.792L81.7328 40.1958L81.046 37.792ZM81.974 37.92L80.7975 40.1259L80.8265 40.1414L80.856 40.1561L81.974 37.92ZM84.63 38.816L85.061 36.3534L85.0356 36.349L85.0101 36.3451L84.63 38.816ZM90.006 37.984L88.2926 36.1635L88.265 36.1895L88.2382 36.2162L90.006 37.984ZM91.094 32.032V29.532H88.594V32.032H91.094ZM91.382 32.032L93.7804 32.7374L94.7232 29.532H91.382V32.032ZM89.366 34.656L90.7111 36.7633L90.7223 36.7561L89.366 34.656ZM82.262 34.656L80.9254 36.7687L80.9409 36.7785L80.9566 36.7881L82.262 34.656ZM79.83 31.904L77.5858 33.0057L79.83 31.904ZM79.446 24.64L77.0905 23.8025L77.085 23.8179L77.0797 23.8333L79.446 24.64ZM80.854 22.176L79.0015 20.4972L78.9869 20.5133L78.9726 20.5297L80.854 22.176ZM83.062 20.608L84.0398 22.9088L84.0534 22.903L84.067 22.8971L83.062 20.608ZM89.398 21.024L88.0009 23.0972L88.0267 23.1146L88.0529 23.1313L89.398 21.024ZM91.35 23.584L93.6712 24.5125L93.9859 23.7258L93.7574 22.9099L91.35 23.584ZM91.03 24.384H88.53L93.3512 25.3125L91.03 24.384ZM91.542 20.608L89.8286 18.7875L89.801 18.8135L89.7742 18.8402L91.542 20.608ZM94.486 20.608L92.7182 22.3758V22.3758L94.486 20.608ZM92.982 40.16L91.2579 38.3497L92.982 40.16ZM89.174 32L90.5259 34.1029L90.5259 34.1029L89.174 32ZM90.55 30.368L88.288 29.3035L88.2809 29.3185L88.2741 29.3335L90.55 30.368ZM89.974 24.352L88.0692 25.9711L88.0793 25.983L88.0896 25.9948L89.974 24.352ZM84.886 23.648L86.2379 25.7509V25.7509L84.886 23.648ZM83.478 25.28L81.2285 24.1893L81.2149 24.2172L81.2021 24.2455L83.478 25.28ZM84.086 31.296L85.9908 29.6769L84.086 31.296ZM99.6545 35.744L97.834 37.4574L97.8859 37.5126L97.9411 37.5645L99.6545 35.744ZM99.6545 20.608L97.8867 18.8402V18.8402L99.6545 20.608ZM102.535 20.608L104.302 18.8402V18.8402L102.535 20.608ZM103.047 24.128V26.628H105.547V24.128H103.047ZM102.727 24.128L100.292 23.5599L99.576 26.628H102.727V24.128ZM104.487 21.216L105.994 23.2101H105.994L104.487 21.216ZM107.975 20.032L108.194 22.5223L108.203 22.5216L108.212 22.5207L107.975 20.032ZM109.031 20.384L107.193 22.0797L107.261 22.1532L107.335 22.221L109.031 20.384ZM109.51 21.6L107.018 21.7917L107.018 21.7994L109.51 21.6ZM109.127 22.912L107.245 21.2657L107.237 21.2747L109.127 22.912ZM107.846 23.488L108.073 25.9777L108.098 25.9755L108.123 25.9727L107.846 23.488ZM107.143 23.552L106.916 21.0623L106.907 21.0631L106.898 21.064L107.143 23.552ZM104.199 24.768L105.966 26.5358L105.98 26.5217L105.994 26.5075L104.199 24.768ZM102.695 35.744L104.462 37.5118L104.489 37.485L104.515 37.4574L102.695 35.744ZM114.56 35.328L113.412 37.5491L114.56 35.328ZM111.584 32.512L109.404 33.7358L109.412 33.7503L109.42 33.7646L111.584 32.512ZM111.552 23.936L109.372 22.7122L109.364 22.7268L109.356 22.7416L111.552 23.936ZM114.336 21.088L115.593 23.2489L115.605 23.2418L114.336 21.088ZM121.376 20.576L120.418 22.8854L120.428 22.8894L120.438 22.8934L121.376 20.576ZM123.648 22.144L121.795 23.8228L121.809 23.8384L121.824 23.8539L123.648 22.144ZM125.088 24.64L122.711 25.4151L122.721 25.4464L122.732 25.4775L125.088 24.64ZM125.184 28.8L126.684 30.8L126.696 30.7909L126.708 30.7816L125.184 28.8ZM113.792 29.088H111.292V31.588H113.792V29.088ZM113.792 26.784V24.284H111.292V26.784H113.792ZM122.784 26.784L124.494 28.6078L129.106 24.284H122.784V26.784ZM122.272 27.264H119.772V33.0346L123.982 29.0878L122.272 27.264ZM121.824 24.8L119.518 25.7668L119.531 25.7981L119.545 25.829L121.824 24.8ZM120.576 23.296L119.17 25.3633L119.217 25.3953L119.266 25.4251L120.576 23.296ZM116.256 23.392L117.626 25.4832L117.634 25.4777L117.643 25.4721L116.256 23.392ZM114.816 25.152L112.531 24.1367L112.524 24.1519L112.518 24.1672L114.816 25.152ZM115.552 32L113.718 33.6994L113.74 33.7226L113.762 33.7453L115.552 32ZM121.056 33.088L121.516 35.5452L121.546 35.5397L121.575 35.5336L121.056 33.088ZM123.04 32.352L124.247 34.5409L124.264 34.5319L124.28 34.5226L123.04 32.352ZM124.224 32.032L123.914 34.5127L123.991 34.5223L124.068 34.5271L124.224 32.032ZM125.024 32.384L123.166 34.0564L123.209 34.1053L123.256 34.1518L125.024 32.384ZM125.408 33.184L122.93 33.5144L122.931 33.526L122.933 33.5375L125.408 33.184ZM125.216 34.112L123.01 32.9355L122.978 32.9944L122.95 33.0548L125.216 34.112ZM124.416 34.944L123.112 32.8108L123.099 32.819L123.085 32.8274L124.416 34.944ZM121.824 36L122.366 38.4405L122.386 38.4361L122.405 38.4314L121.824 36ZM131.583 36.032L132.044 33.5748L131.583 36.032ZM128.831 35.04L127.507 37.16L127.542 37.1824L127.579 37.2036L128.831 35.04ZM128.095 34.304L125.798 35.2888L125.842 35.3912L125.894 35.4893L128.095 34.304ZM127.936 33.44L125.461 33.0864L125.449 33.1671L125.443 33.2483L127.936 33.44ZM128.256 32.672L126.397 30.9996L126.349 31.0536L126.303 31.1103L128.256 32.672ZM128.96 32.256L128.436 29.8115L128.416 29.8156L128.397 29.82L128.96 32.256ZM129.92 32.416L128.801 34.6521L128.824 34.6634L128.847 34.6742L129.92 32.416ZM132.32 33.28L131.762 35.7171L131.796 35.7248L131.829 35.7315L132.32 33.28ZM136.799 32.992L138.227 35.0443L138.236 35.0382L138.245 35.0321L136.799 32.992ZM137.055 30.464L135.418 32.3532L135.485 32.411L135.555 32.464L137.055 30.464ZM135.583 29.856L136.059 27.4015L136.05 27.3999L135.583 29.856ZM132.383 29.248L131.908 31.7025L131.917 31.7041L132.383 29.248ZM129.343 27.808L127.523 29.5214L127.549 29.549L127.576 29.5758L129.343 27.808ZM129.151 22.368L127.172 20.841L127.158 20.859L127.145 20.8772L129.151 22.368ZM137.6 20.352L136.963 22.7697L137 22.7794L137.037 22.788L137.6 20.352ZM139.999 21.28L138.785 23.4654L138.804 23.4758L138.823 23.4859L139.999 21.28ZM140.639 21.952L138.306 22.8494L138.335 22.9256L138.37 22.9996L140.639 21.952ZM140.736 22.816L143.171 23.3781L143.176 23.359L143.18 23.3398L140.736 22.816ZM140.352 23.584L142.21 25.2564L142.249 25.2127L142.286 25.1671L140.352 23.584ZM139.615 24L139.996 26.4709L140.068 26.4598L140.139 26.4445L139.615 24ZM138.656 23.808L137.509 26.0296L137.55 26.0506L137.591 26.07L138.656 23.808ZM136.736 23.072L136.129 25.4974L136.139 25.4998L136.149 25.5022L136.736 23.072ZM132.671 23.392L131.226 21.3519L131.206 21.3665L131.186 21.3816L132.671 23.392ZM133.76 26.56L134.226 24.1039L134.205 24.1L134.184 24.0963L133.76 26.56ZM136.96 27.168L136.493 29.6241L136.506 29.6265L136.96 27.168ZM140.096 28.576L138.355 30.3708L138.369 30.3837L138.382 30.3965L140.096 28.576ZM139.359 35.008L140.819 37.0375L140.831 37.0291L140.842 37.0206L139.359 35.008ZM146.505 35.68L145.365 37.9051L145.397 37.9216L145.43 37.9372L146.505 35.68ZM144.424 33.888L142.335 35.2609L142.349 35.2815L142.363 35.3018L144.424 33.888ZM144.585 28.64L146.44 30.3157L146.453 30.3011L146.466 30.2863L144.585 28.64ZM147.497 27.168L146.954 24.7275L147.497 27.168ZM154.505 26.72H157.005V24.22H154.505V26.72ZM154.505 29.024V31.524H157.005V29.024H154.505ZM148.072 29.888L149.778 31.7156L149.782 31.7118L148.072 29.888ZM148.329 32.896L146.643 34.7422L148.329 32.896ZM152.232 33.088L153.519 35.2317L153.531 35.2245L153.543 35.2171L152.232 33.088ZM153.544 31.712L151.359 30.4979L153.544 31.712ZM153.32 23.744L151.553 25.5118V25.5118L153.32 23.744ZM148.936 23.264L148.432 20.8154L148.425 20.8169L148.418 20.8184L148.936 23.264ZM146.697 24.032L145.653 21.7603L145.639 21.7664L145.626 21.7727L146.697 24.032ZM145.609 24.192L144.922 26.5958L144.943 26.6019L144.964 26.6076L145.609 24.192ZM144.904 23.68L142.775 24.9902L142.799 25.0289L142.824 25.0668L144.904 23.68ZM144.904 21.856L147.075 23.0963L147.093 23.0647L147.11 23.0325L144.904 21.856ZM145.768 21.152L146.633 23.4979L146.678 23.4811L146.723 23.4627L145.768 21.152ZM148.585 20.288L148.127 17.8302L148.117 17.8322L148.585 20.288ZM154.857 20.736L153.778 22.9913L153.787 22.9958L153.797 23.0002L154.857 20.736ZM157.096 22.88L154.87 24.0178L154.876 24.028L154.881 24.0381L157.096 22.88ZM157.353 35.744L159.176 37.4539L159.202 37.4263L159.227 37.3981L157.353 35.744ZM154.568 35.744L152.694 37.3981L152.746 37.4566L152.801 37.5118L154.568 35.744ZM154.089 32.672V30.172H151.589V32.672H154.089ZM154.344 32.672L156.796 33.1623L157.394 30.172H154.344V32.672ZM153.449 34.624L151.504 33.0531L151.496 33.0623L153.449 34.624ZM151.816 35.872L152.845 38.1504L151.816 35.872ZM162.404 35.744L160.584 37.4574L160.636 37.5126L160.691 37.5645L162.404 35.744ZM162.404 20.608L160.637 18.8402V18.8402L162.404 20.608ZM165.285 20.608L167.052 18.8402V18.8402L165.285 20.608ZM165.796 24.128V26.628H168.296V24.128H165.796ZM165.477 24.128L163.042 23.5599L162.326 26.628H165.477V24.128ZM167.236 21.216L168.744 23.2101L167.236 21.216ZM170.725 20.032L170.944 22.5223L170.953 22.5216L170.962 22.5207L170.725 20.032ZM171.781 20.384L169.943 22.0797L170.011 22.1532L170.085 22.221L171.781 20.384ZM172.26 21.6L169.768 21.7917L169.768 21.7994L172.26 21.6ZM171.876 22.912L169.995 21.2657L169.987 21.2747L171.876 22.912ZM170.596 23.488L170.823 25.9777L170.848 25.9755L170.873 25.9727L170.596 23.488ZM169.893 23.552L169.666 21.0623L169.657 21.0631L169.648 21.064L169.893 23.552ZM166.949 24.768L168.716 26.5358L168.73 26.5217L168.744 26.5075L166.949 24.768ZM165.445 35.744L167.212 37.5118L167.239 37.485L167.265 37.4574L165.445 35.744ZM5.5 26.5C5.5 14.902 14.902 5.5 26.5 5.5V0.5C12.1406 0.5 0.5 12.1406 0.5 26.5H5.5ZM26.5 5.5H200.5V0.5H26.5V5.5ZM200.5 5.5C212.098 5.5 221.5 14.902 221.5 26.5H226.5C226.5 12.1406 214.859 0.5 200.5 0.5V5.5ZM221.5 26.5C221.5 38.098 212.098 47.5 200.5 47.5V52.5C214.859 52.5 226.5 40.8594 226.5 26.5H221.5ZM200.5 47.5H26.5V52.5H200.5V47.5ZM26.5 47.5C14.902 47.5 5.5 38.098 5.5 26.5H0.5C0.5 40.8594 12.1406 52.5 26.5 52.5V47.5ZM54.512 33.756C54.4059 33.756 54.4035 33.7411 54.4666 33.7634C54.4992 33.775 54.5446 33.7949 54.5963 33.8271C54.6485 33.8596 54.6988 33.8993 54.7438 33.9442L51.2082 37.4798C52.1647 38.4363 53.3882 38.756 54.512 38.756V33.756ZM54.8445 34.0511C54.8786 34.0894 54.9069 34.1297 54.9289 34.1687C54.9507 34.2073 54.9627 34.2381 54.9685 34.256C54.9796 34.29 54.964 34.2628 54.964 34.144H49.964C49.964 35.2369 50.2535 36.4122 51.1075 37.3729L54.8445 34.0511ZM54.964 34.144V15.296H49.964V34.144H54.964ZM54.964 15.296C54.964 15.1572 54.982 15.1267 54.9685 15.168C54.9612 15.1905 54.9456 15.2307 54.9162 15.2816C54.8864 15.3331 54.8466 15.3882 54.7965 15.4414L51.1555 12.0146C50.2375 12.99 49.964 14.2158 49.964 15.296H54.964ZM54.7438 15.4958C54.6988 15.5407 54.6486 15.5804 54.5963 15.6129C54.5446 15.6451 54.4992 15.665 54.4666 15.6766C54.4035 15.6989 54.4059 15.684 54.512 15.684V10.684C53.3882 10.684 52.1647 11.0037 51.2082 11.9602L54.7438 15.4958ZM54.512 15.684C54.6198 15.684 54.6123 15.6994 54.5337 15.6709C54.442 15.6378 54.3125 15.5657 54.1955 15.4414L57.8365 12.0146C56.8822 11.0006 55.6266 10.684 54.512 10.684V15.684ZM54.2482 15.4958C54.1988 15.4463 54.157 15.3926 54.124 15.3388C54.0913 15.2856 54.0723 15.2408 54.0621 15.2114C54.0428 15.1558 54.06 15.1708 54.06 15.296H59.06C59.06 14.1772 58.7544 12.9309 57.7838 11.9602L54.2482 15.4958ZM54.06 15.296V34.144H59.06V15.296H54.06ZM54.06 34.144C54.06 34.2628 54.0444 34.29 54.0555 34.256C54.0613 34.2381 54.0733 34.2073 54.0951 34.1687C54.1171 34.1297 54.1454 34.0894 54.1795 34.0511L57.9165 37.3729C58.7705 36.4122 59.06 35.2369 59.06 34.144H54.06ZM54.2275 33.9986C54.2863 33.9361 54.351 33.8834 54.4161 33.8419C54.4805 33.8009 54.5358 33.7768 54.5734 33.7634C54.6442 33.7383 54.6389 33.756 54.512 33.756V38.756C55.6201 38.756 56.9001 38.4544 57.8685 37.4254L54.2275 33.9986ZM63.0952 33.756C62.9924 33.756 62.9967 33.7418 63.0686 33.7668C63.1518 33.7957 63.275 33.8602 63.391 33.9762L59.8555 37.5118C60.8031 38.4594 62.0158 38.756 63.0952 38.756V33.756ZM63.4437 34.0306C63.4896 34.0793 63.5274 34.1309 63.5568 34.1811C63.5858 34.2307 63.6023 34.2716 63.611 34.2974C63.6273 34.3463 63.6113 34.3283 63.6113 34.208H58.6113C58.6113 35.2921 58.8975 36.4956 59.8027 37.4574L63.4437 34.0306ZM63.6113 34.208V22.112H58.6113V34.208H63.6113ZM63.6113 22.112C63.6113 21.9901 63.6277 21.9816 63.6059 22.0457C63.58 22.1216 63.5165 22.2503 63.391 22.3758L59.8555 18.8402C58.8935 19.8022 58.6113 21.0386 58.6113 22.112H63.6113ZM63.391 22.3758C63.2846 22.4822 63.1668 22.5475 63.0768 22.5795C62.9972 22.6078 62.9801 22.596 63.0633 22.596V17.596C61.9771 17.596 60.7879 17.9078 59.8555 18.8402L63.391 22.3758ZM63.0633 22.596C63.1464 22.596 63.1293 22.6078 63.0497 22.5795C62.9597 22.5475 62.8419 22.4822 62.7355 22.3758L66.271 18.8402C65.3386 17.9078 64.1494 17.596 63.0633 17.596V22.596ZM62.7355 22.3758C62.61 22.2503 62.5465 22.1216 62.5206 22.0457C62.4988 21.9816 62.5153 21.9901 62.5153 22.112H67.5153C67.5153 21.0386 67.233 19.8022 66.271 18.8402L62.7355 22.3758ZM62.5153 22.112V24.288H67.5153V22.112H62.5153ZM67.3035 23.2811L66.9515 22.4811L62.375 24.4948L62.727 25.2948L67.3035 23.2811ZM66.9722 24.4464C67.25 23.7773 67.6286 23.3635 68.1048 23.084L65.5737 18.772C64.0872 19.6445 63.0152 20.9373 62.3543 22.5296L66.9722 24.4464ZM68.1188 23.0758C68.7042 22.727 69.3864 22.532 70.2312 22.532V17.532C68.5587 17.532 66.9797 17.9343 65.5597 18.7802L68.1188 23.0758ZM70.2312 22.532C71.1959 22.532 71.7616 22.7137 72.0827 22.8996L74.5878 18.5724C73.2876 17.8196 71.784 17.532 70.2312 17.532V22.532ZM72.0827 22.8996C72.3702 23.066 72.6372 23.3338 72.8561 23.8524L77.4624 21.9076C76.8707 20.5062 75.9217 19.3446 74.5878 18.5724L72.0827 22.8996ZM72.8641 23.8711C73.0902 24.3947 73.2673 25.2219 73.2673 26.464H78.2673C78.2673 24.8047 78.039 23.2426 77.4544 21.8889L72.8641 23.8711ZM73.2673 26.464V34.208H78.2673V26.464H73.2673ZM73.2673 34.208C73.2673 34.3283 73.2512 34.3463 73.2675 34.2974C73.2762 34.2716 73.2927 34.2307 73.3217 34.181C73.3511 34.1309 73.3889 34.0793 73.4347 34.0306L77.0758 37.4574C77.981 36.4956 78.2673 35.2921 78.2673 34.208H73.2673ZM73.4875 33.9762C73.6035 33.8602 73.7267 33.7957 73.8099 33.7668C73.8818 33.7418 73.8861 33.756 73.7832 33.756V38.756C74.8627 38.756 76.0754 38.4594 77.023 37.5118L73.4875 33.9762ZM73.7832 33.756C73.682 33.756 73.6765 33.7422 73.7329 33.7614C73.762 33.7713 73.8035 33.7887 73.8518 33.8173C73.9004 33.8461 73.9485 33.8819 73.9927 33.9235L70.5658 37.5645C71.5132 38.4562 72.6946 38.756 73.7832 38.756V33.756ZM74.0998 34.0306C74.1456 34.0793 74.1834 34.1309 74.2128 34.181C74.2418 34.2307 74.2583 34.2716 74.267 34.2974C74.2833 34.3463 74.2673 34.3283 74.2673 34.208H69.2673C69.2673 35.2921 69.5535 36.4956 70.4587 37.4574L74.0998 34.0306ZM74.2673 34.208V26.656H69.2673V34.208H74.2673ZM74.2673 26.656C74.2673 25.2159 74.0072 23.6089 72.9717 22.3851L69.1548 25.6149C69.0959 25.5453 69.1283 25.5456 69.1747 25.7205C69.222 25.8988 69.2673 26.1982 69.2673 26.656H74.2673ZM73.0081 22.4292C71.9342 21.0996 70.3875 20.668 68.9512 20.668V25.668C69.1984 25.668 69.2895 25.7046 69.2829 25.702C69.2772 25.6998 69.2514 25.6886 69.2155 25.6627C69.179 25.6363 69.1453 25.6042 69.1184 25.5708L73.0081 22.4292ZM68.9512 20.668C67.1976 20.668 65.5621 21.2517 64.3163 22.573L67.9542 26.003C68.1164 25.831 68.3582 25.668 68.9512 25.668V20.668ZM64.3148 22.5746C63.1036 23.8614 62.6113 25.4955 62.6113 27.2H67.6113C67.6113 26.4725 67.8016 26.1652 67.9557 26.0014L64.3148 22.5746ZM62.6113 27.2V34.208H67.6113V27.2H62.6113ZM62.6113 34.208C62.6113 34.5151 62.5361 34.2843 62.8256 33.9902C62.961 33.8527 63.0989 33.786 63.1754 33.7601C63.2394 33.7384 63.2269 33.756 63.0952 33.756V38.756C64.1627 38.756 65.4202 38.4819 66.3889 37.4978C67.3504 36.521 67.6113 35.2662 67.6113 34.208H62.6113ZM87.126 39.58C86.1292 39.58 85.1705 39.4878 84.247 39.3067L83.285 44.2133C84.5375 44.4589 85.8188 44.58 87.126 44.58V39.58ZM84.2563 39.3086C83.3916 39.1356 82.6428 38.8754 81.9937 38.5429L79.7143 42.9931C80.8146 43.5566 82.007 43.9577 83.2757 44.2115L84.2563 39.3086ZM82.0184 38.5557C81.9076 38.4974 82.1008 38.5673 82.2581 38.882L77.7859 41.118C78.2419 42.03 78.9897 42.6119 79.6896 42.9803L82.0184 38.5557ZM82.3199 39.0152C82.3403 39.0629 82.3601 39.1268 82.3706 39.2024C82.381 39.2781 82.3795 39.3469 82.3721 39.4024L77.4159 38.7416C77.3133 39.5113 77.4199 40.2749 77.7241 40.9848L82.3199 39.0152ZM82.3385 39.5958C82.3305 39.6331 82.3159 39.6796 82.2918 39.7298C82.2677 39.7801 82.2396 39.8225 82.2129 39.8551L78.3431 36.6889C77.8975 37.2335 77.5961 37.8639 77.4495 38.5482L82.3385 39.5958ZM82.1279 39.9537C82.0883 39.9972 82.0308 40.0486 81.955 40.096C81.8789 40.1436 81.8019 40.1761 81.7328 40.1958L80.3592 35.3882C79.6034 35.6041 78.9475 36.019 78.4281 36.5903L82.1279 39.9537ZM81.7328 40.1958C81.5463 40.2491 81.348 40.2624 81.1604 40.2366C80.98 40.2117 80.8564 40.1573 80.7975 40.1259L83.1505 35.7141C82.3614 35.2933 81.3849 35.0951 80.3592 35.3882L81.7328 40.1958ZM80.856 40.1561C81.9721 40.7141 83.1069 41.1111 84.2499 41.2869L85.0101 36.3451C84.4891 36.2649 83.8532 36.0645 83.092 35.6839L80.856 40.1561ZM84.199 41.2786C85.1373 41.4428 86.0157 41.54 86.806 41.54V36.54C86.4016 36.54 85.8294 36.4879 85.061 36.3534L84.199 41.2786ZM86.806 41.54C88.608 41.54 90.4293 41.0963 91.7738 39.7518L88.2382 36.2162C88.1747 36.2797 87.8627 36.54 86.806 36.54V41.54ZM91.7194 39.8045C93.111 38.4947 93.594 36.7028 93.594 34.912H88.594C88.594 35.8519 88.3516 36.1079 88.2926 36.1635L91.7194 39.8045ZM93.594 34.912V32.032H88.594V34.912H93.594ZM91.094 34.532H91.382V29.532H91.094V34.532ZM88.9836 31.3266C88.8458 31.7949 88.5712 32.1933 88.0097 32.5559L90.7223 36.7561C92.2088 35.7961 93.2782 34.4451 93.7804 32.7374L88.9836 31.3266ZM88.0209 32.5487C87.4507 32.9126 86.7832 33.116 85.942 33.116V38.116C87.6608 38.116 89.2759 37.6794 90.7111 36.7633L88.0209 32.5487ZM85.942 33.116C84.9248 33.116 84.1642 32.8893 83.5674 32.5239L80.9566 36.7881C82.4505 37.7027 84.1432 38.116 85.942 38.116V33.116ZM83.5986 32.5433C82.9658 32.1429 82.4588 31.5859 82.0742 30.8023L77.5858 33.0057C78.3532 34.5688 79.4675 35.8464 80.9254 36.7687L83.5986 32.5433ZM82.0742 30.8023C81.6957 30.0314 81.466 29.0558 81.466 27.808H76.466C76.466 29.6748 76.8123 31.4299 77.5858 33.0057L82.0742 30.8023ZM81.466 27.808C81.466 26.8601 81.5953 26.083 81.8123 25.4467L77.0797 23.8333C76.6567 25.0743 76.466 26.4092 76.466 27.808H81.466ZM81.8015 25.4775C82.0502 24.7781 82.3698 24.2402 82.7354 23.8223L78.9726 20.5297C78.1436 21.4771 77.5245 22.5819 77.0905 23.8025L81.8015 25.4775ZM82.7065 23.8548C83.0805 23.4421 83.5174 23.1308 84.0398 22.9088L82.0841 18.3072C80.8999 18.8105 79.8649 19.5446 79.0015 20.4972L82.7065 23.8548ZM84.067 22.8971C84.596 22.6648 85.2097 22.532 85.942 22.532V17.532C84.5836 17.532 83.2773 17.7832 82.057 18.3189L84.067 22.8971ZM85.942 22.532C86.8277 22.532 87.4801 22.7462 88.0009 23.0972L90.7951 18.9508C89.3533 17.9791 87.7017 17.532 85.942 17.532V22.532ZM88.0529 23.1313C88.5789 23.467 88.8226 23.8294 88.9426 24.2581L93.7574 22.9099C93.2801 21.2052 92.2224 19.861 90.7431 18.9167L88.0529 23.1313ZM89.0288 22.6555L88.7088 23.4555L93.3512 25.3125L93.6712 24.5125L89.0288 22.6555ZM93.53 24.384V22.112H88.53V24.384H93.53ZM93.53 22.112C93.53 21.9901 93.5464 21.9816 93.5246 22.0457C93.4988 22.1216 93.4352 22.2503 93.3098 22.3758L89.7742 18.8402C88.8123 19.8022 88.53 21.0386 88.53 22.112H93.53ZM93.2554 22.4285C93.1697 22.5092 93.0754 22.5602 93.0033 22.5852C92.9396 22.6074 92.9323 22.596 93.014 22.596V17.596C91.9203 17.596 90.7607 17.9102 89.8286 18.7875L93.2554 22.4285ZM93.014 22.596C93.1168 22.596 93.1126 22.6102 93.0407 22.5852C92.9575 22.5563 92.8342 22.4918 92.7182 22.3758L96.2538 18.8402C95.3061 17.8926 94.0934 17.596 93.014 17.596V22.596ZM92.7182 22.3758C92.5928 22.2503 92.5292 22.1216 92.5034 22.0457C92.4816 21.9816 92.498 21.9901 92.498 22.112H97.498C97.498 21.0386 97.2157 19.8022 96.2538 18.8402L92.7182 22.3758ZM92.498 22.112V34.432H97.498V22.112H92.498ZM92.498 34.432C92.498 36.5461 91.9455 37.6948 91.2579 38.3497L94.7061 41.9703C96.7065 40.0652 97.498 37.3953 97.498 34.432H92.498ZM91.2579 38.3497C90.531 39.0419 89.2907 39.58 87.126 39.58V44.58C90.0813 44.58 92.745 43.8381 94.7061 41.9703L91.2579 38.3497ZM87.03 35.076C88.2576 35.076 89.4602 34.7881 90.5259 34.1029L87.8221 29.8971C87.6932 29.9799 87.4664 30.076 87.03 30.076V35.076ZM90.5259 34.1029C91.5634 33.436 92.3254 32.5035 92.8259 31.4025L88.2741 29.3335C88.1346 29.6405 87.9792 29.796 87.8221 29.8971L90.5259 34.1029ZM92.812 31.4325C93.3412 30.3081 93.562 29.0765 93.562 27.808H88.562C88.562 28.5021 88.4415 28.9773 88.288 29.3035L92.812 31.4325ZM93.562 27.808C93.562 25.936 93.0968 24.1297 91.8584 22.7092L88.0896 25.9948C88.3018 26.2383 88.562 26.736 88.562 27.808H93.562ZM91.8788 22.7329C90.6251 21.2579 88.9141 20.572 87.03 20.572V25.572C87.6206 25.572 87.8722 25.7394 88.0692 25.9711L91.8788 22.7329ZM87.03 20.572C85.8024 20.572 84.5998 20.8599 83.5341 21.5451L86.2379 25.7509C86.3668 25.668 86.5936 25.572 87.03 25.572V20.572ZM83.5341 21.5451C82.5115 22.2024 81.7492 23.1152 81.2285 24.1893L85.7275 26.3707C85.8894 26.0368 86.0658 25.8616 86.2379 25.7509L83.5341 21.5451ZM81.2021 24.2455C80.7003 25.3494 80.498 26.5625 80.498 27.808H85.498C85.498 27.0908 85.6157 26.6186 85.7539 26.3145L81.2021 24.2455ZM80.498 27.808C80.498 29.6841 80.9647 31.484 82.1812 32.9151L85.9908 29.6769C85.7566 29.4013 85.498 28.8759 85.498 27.808H80.498ZM82.1812 32.9151C83.4349 34.3901 85.1459 35.076 87.03 35.076V30.076C86.4394 30.076 86.1878 29.9086 85.9908 29.6769L82.1812 32.9151ZM101.19 33.756C101.07 33.756 101.052 33.74 101.101 33.7563C101.127 33.7649 101.168 33.7814 101.217 33.8105C101.268 33.8398 101.319 33.8776 101.368 33.9235L97.9411 37.5645C98.9029 38.4697 100.106 38.756 101.19 38.756V33.756ZM101.475 34.0306C101.521 34.0793 101.559 34.1309 101.588 34.181C101.617 34.2307 101.634 34.2716 101.642 34.2974C101.659 34.3463 101.643 34.3283 101.643 34.208H96.6425C96.6425 35.2921 96.9288 36.4956 97.834 37.4574L101.475 34.0306ZM101.643 34.208V22.112H96.6425V34.208H101.643ZM101.643 22.112C101.643 21.9901 101.659 21.9816 101.637 22.0457C101.611 22.1216 101.548 22.2503 101.422 22.3758L97.8867 18.8402C96.9248 19.8022 96.6425 21.0386 96.6425 22.112H101.643ZM101.422 22.3758C101.316 22.4822 101.198 22.5475 101.108 22.5795C101.028 22.6078 101.011 22.596 101.094 22.596V17.596C100.008 17.596 98.8191 17.9078 97.8867 18.8402L101.422 22.3758ZM101.094 22.596C101.178 22.596 101.161 22.6078 101.081 22.5795C100.991 22.5475 100.873 22.4822 100.767 22.3758L104.302 18.8402C103.37 17.9078 102.181 17.596 101.094 17.596V22.596ZM100.767 22.3758C100.641 22.2503 100.578 22.1216 100.552 22.0457C100.53 21.9816 100.547 21.9901 100.547 22.112H105.547C105.547 21.0386 105.264 19.8022 104.302 18.8402L100.767 22.3758ZM100.547 22.112V24.128H105.547V22.112H100.547ZM103.047 21.628H102.727V26.628H103.047V21.628ZM105.161 24.6961C105.354 23.8673 105.674 23.4524 105.994 23.2101L102.979 19.2219C101.55 20.3023 100.696 21.8287 100.292 23.5599L105.161 24.6961ZM105.994 23.2101C106.391 22.9104 107.061 22.6223 108.194 22.5223L107.755 17.5417C105.986 17.6977 104.332 18.1989 102.979 19.2219L105.994 23.2101ZM108.212 22.5207C108.161 22.5256 108.001 22.5321 107.784 22.4597C107.553 22.3826 107.347 22.2455 107.193 22.0797L110.868 18.6883C109.977 17.7237 108.795 17.4426 107.737 17.5433L108.212 22.5207ZM107.335 22.221C107.157 22.0572 107.07 21.891 107.033 21.7979C107 21.7143 107.011 21.6982 107.018 21.7917L112.003 21.4083C111.935 20.5178 111.646 19.396 110.726 18.547L107.335 22.221ZM107.018 21.7994C107.02 21.8142 107.012 21.7456 107.047 21.6258C107.085 21.4976 107.154 21.3697 107.245 21.2657L111.008 24.5583C111.83 23.6185 112.089 22.4758 112.003 21.4006L107.018 21.7994ZM107.237 21.2747C107.36 21.1328 107.49 21.0534 107.573 21.0162C107.646 20.9832 107.659 20.9935 107.57 21.0033L108.123 25.9727C109.091 25.8651 110.195 25.4963 111.016 24.5493L107.237 21.2747ZM107.62 20.9983L106.916 21.0623L107.369 26.0417L108.073 25.9777L107.62 20.9983ZM106.898 21.064C105.228 21.2282 103.608 21.7845 102.403 23.0285L105.994 26.5075C106.112 26.3862 106.454 26.1318 107.387 26.04L106.898 21.064ZM102.431 23.0002C101.172 24.2591 100.706 25.9124 100.706 27.584H105.706C105.706 26.8236 105.902 26.5995 105.966 26.5358L102.431 23.0002ZM100.706 27.584V34.208H105.706V27.584H100.706ZM100.706 34.208C100.706 34.3283 100.69 34.3463 100.707 34.2974C100.715 34.2716 100.732 34.2307 100.761 34.1811C100.79 34.1309 100.828 34.0793 100.874 34.0306L104.515 37.4574C105.42 36.4956 105.706 35.2921 105.706 34.208H100.706ZM100.927 33.9762C101.052 33.8508 101.181 33.7872 101.257 33.7614C101.321 33.7396 101.312 33.756 101.19 33.756V38.756C102.264 38.756 103.5 38.4737 104.462 37.5118L100.927 33.9762ZM119.136 33.82C117.674 33.82 116.56 33.5477 115.707 33.1069L113.412 37.5491C115.119 38.431 117.056 38.82 119.136 38.82V33.82ZM115.707 33.1069C114.84 32.6589 114.206 32.0512 113.747 31.2594L109.42 33.7646C110.37 35.4048 111.719 36.6744 113.412 37.5491L115.707 33.1069ZM113.764 31.2882C113.328 30.5121 113.06 29.5102 113.06 28.192H108.06C108.06 30.2018 108.474 32.0799 109.404 33.7358L113.764 31.2882ZM113.06 28.192C113.06 26.9162 113.318 25.9216 113.748 25.1304L109.356 22.7416C108.463 24.3824 108.06 26.2251 108.06 28.192H113.06ZM113.732 25.1598C114.202 24.3218 114.816 23.7008 115.593 23.2489L113.079 18.9271C111.509 19.8405 110.267 21.1182 109.372 22.7122L113.732 25.1598ZM115.605 23.2418C116.38 22.7851 117.289 22.532 118.4 22.532V17.532C116.481 17.532 114.681 17.9829 113.067 18.9342L115.605 23.2418ZM118.4 22.532C119.236 22.532 119.895 22.6682 120.418 22.8854L122.333 18.2666C121.108 17.7585 119.782 17.532 118.4 17.532V22.532ZM120.438 22.8934C121.002 23.1219 121.442 23.4329 121.795 23.8228L125.5 20.4652C124.616 19.4898 123.541 18.7554 122.314 18.2586L120.438 22.8934ZM121.824 23.8539C122.188 24.2427 122.493 24.7458 122.711 25.4151L127.465 23.8649C127.043 22.5715 126.387 21.4106 125.472 20.4341L121.824 23.8539ZM122.732 25.4775C122.961 26.1223 123.1 26.9196 123.1 27.904H128.1C128.1 26.4564 127.897 25.0777 127.443 23.8025L122.732 25.4775ZM123.1 27.904C123.1 27.7924 123.121 27.5942 123.228 27.3632C123.339 27.1249 123.5 26.9413 123.659 26.8184L126.708 30.7816C127.666 30.0443 128.1 28.9772 128.1 27.904H123.1ZM123.684 26.8C123.866 26.6637 124.022 26.612 124.089 26.5948C124.152 26.5785 124.153 26.588 124.064 26.588V31.588C124.824 31.588 125.819 31.4486 126.684 30.8L123.684 26.8ZM124.064 26.588H113.792V31.588H124.064V26.588ZM116.292 29.088V26.784H111.292V29.088H116.292ZM113.792 29.284H122.784V24.284H113.792V29.284ZM121.074 24.9602L120.562 25.4402L123.982 29.0878L124.494 28.6078L121.074 24.9602ZM124.772 27.264C124.772 26.046 124.589 24.8484 124.102 23.771L119.545 25.829C119.656 26.0742 119.772 26.5193 119.772 27.264H124.772ZM124.129 23.8332C123.671 22.7411 122.931 21.8098 121.886 21.1669L119.266 25.4251C119.33 25.4649 119.422 25.5363 119.518 25.7668L124.129 23.8332ZM121.982 21.2287C120.938 20.5193 119.743 20.252 118.56 20.252V25.252C118.998 25.252 119.146 25.3473 119.17 25.3633L121.982 21.2287ZM118.56 20.252C117.254 20.252 115.984 20.5686 114.869 21.3119L117.643 25.4721C117.808 25.3621 118.074 25.252 118.56 25.252V20.252ZM114.886 21.3008C113.812 22.0041 113.04 22.9912 112.531 24.1367L117.1 26.1673C117.274 25.7768 117.462 25.5906 117.626 25.4832L114.886 21.3008ZM112.518 24.1672C112.032 25.3005 111.836 26.5492 111.836 27.84H116.836C116.836 27.0402 116.959 26.4968 117.114 26.1368L112.518 24.1672ZM111.836 27.84V28.064H116.836V27.84H111.836ZM111.836 28.064C111.836 30.1535 112.316 32.1865 113.718 33.6994L117.385 30.3006C117.166 30.0641 116.836 29.4731 116.836 28.064H111.836ZM113.762 33.7453C115.208 35.2289 117.165 35.78 119.2 35.78V30.78C118.035 30.78 117.559 30.4778 117.342 30.2547L113.762 33.7453ZM119.2 35.78C119.942 35.78 120.718 35.6949 121.516 35.5452L120.595 30.6308C120.028 30.7371 119.567 30.78 119.2 30.78V35.78ZM121.575 35.5336C122.515 35.3341 123.409 35.0035 124.247 34.5409L121.832 30.1631C121.433 30.3831 121.004 30.5433 120.537 30.6424L121.575 35.5336ZM124.28 34.5226C124.365 34.474 124.378 34.4789 124.324 34.4934C124.266 34.5091 124.12 34.5385 123.914 34.5127L124.534 29.5513C123.447 29.4155 122.494 29.7846 121.799 30.1814L124.28 34.5226ZM124.068 34.5271C123.995 34.5226 123.851 34.5027 123.673 34.4243C123.487 34.3425 123.31 34.2171 123.166 34.0564L126.882 30.7116C126.17 29.9204 125.24 29.5907 124.38 29.5369L124.068 34.5271ZM123.256 34.1518C123.167 34.0629 123.087 33.9521 123.026 33.8258C122.966 33.7014 122.94 33.5914 122.93 33.5144L127.886 32.8536C127.776 32.0301 127.421 31.2457 126.792 30.6162L123.256 34.1518ZM122.933 33.5375C122.911 33.3875 122.92 33.2484 122.944 33.1335C122.966 33.0228 122.999 32.9556 123.01 32.9355L127.422 35.2885C127.79 34.597 128.015 33.7541 127.883 32.8305L122.933 33.5375ZM122.95 33.0548C123.059 32.8216 123.191 32.7625 123.112 32.8108L125.719 37.0772C126.408 36.6562 127.074 36.0424 127.481 35.1692L122.95 33.0548ZM123.085 32.8274C122.6 33.1324 121.996 33.3883 121.242 33.5686L122.405 38.4314C123.614 38.1424 124.738 37.6942 125.746 37.0606L123.085 32.8274ZM121.281 33.5595C120.468 33.7402 119.756 33.82 119.136 33.82V38.82C120.18 38.82 121.259 38.6864 122.366 38.4405L121.281 33.5595ZM134.495 33.82C133.752 33.82 132.936 33.7421 132.044 33.5748L131.123 38.4892C132.279 38.7059 133.404 38.82 134.495 38.82V33.82ZM132.044 33.5748C131.268 33.4293 130.623 33.1887 130.084 32.8764L127.579 37.2036C128.661 37.83 129.851 38.2508 131.123 38.4892L132.044 33.5748ZM130.156 32.92C130.083 32.8742 130.19 32.9215 130.297 33.1188L125.894 35.4893C126.299 36.2411 126.897 36.7792 127.507 37.16L130.156 32.92ZM130.393 33.3192C130.397 33.3289 130.443 33.4443 130.428 33.6317L125.443 33.2483C125.386 33.9904 125.537 34.6818 125.798 35.2888L130.393 33.3192ZM130.41 33.7936C130.404 33.835 130.39 33.9025 130.355 33.9855C130.32 34.0699 130.271 34.1552 130.208 34.2337L126.303 31.1103C125.825 31.708 125.56 32.393 125.461 33.0864L130.41 33.7936ZM130.114 34.3444C130.049 34.4165 129.96 34.4937 129.847 34.5603C129.734 34.627 129.622 34.6689 129.522 34.692L128.397 29.82C127.615 30.0005 126.93 30.4081 126.397 30.9996L130.114 34.3444ZM129.483 34.7005C129.306 34.7384 129.143 34.7358 129.013 34.714C128.888 34.6932 128.815 34.6591 128.801 34.6521L131.038 30.1799C130.318 29.8202 129.416 29.6014 128.436 29.8115L129.483 34.7005ZM128.847 34.6742C129.828 35.1404 130.802 35.4977 131.762 35.7171L132.877 30.8429C132.343 30.721 131.717 30.5022 130.992 30.1578L128.847 34.6742ZM131.829 35.7315C132.729 35.9115 133.63 36.004 134.527 36.004V31.004C133.975 31.004 133.403 30.9472 132.81 30.8285L131.829 35.7315ZM134.527 36.004C135.737 36.004 137.113 35.8195 138.227 35.0443L135.372 30.9397C135.458 30.88 135.467 30.9026 135.314 30.9372C135.162 30.9713 134.909 31.004 134.527 31.004V36.004ZM138.245 35.0321C139.349 34.2497 140.068 33.052 140.068 31.584H135.068C135.068 31.487 135.093 31.3316 135.181 31.1709C135.221 31.0977 135.263 31.0423 135.298 31.0043C135.333 30.9672 135.355 30.9514 135.354 30.9519L138.245 35.0321ZM140.068 31.584C140.068 30.4409 139.627 29.2674 138.555 28.464L135.555 32.464C135.406 32.3517 135.261 32.1838 135.166 31.9754C135.076 31.7785 135.068 31.6284 135.068 31.584H140.068ZM138.693 28.5748C137.901 27.8885 136.92 27.5683 136.059 27.4016L135.108 32.3104C135.316 32.3507 135.437 32.3915 135.493 32.4147C135.55 32.4381 135.506 32.4291 135.418 32.3532L138.693 28.5748ZM136.05 27.3999L132.85 26.7919L131.917 31.7041L135.117 32.3121L136.05 27.3999ZM132.859 26.7935C131.857 26.5997 131.358 26.2868 131.111 26.0402L127.576 29.5758C128.737 30.7372 130.265 31.3843 131.908 31.7024L132.859 26.7935ZM131.164 26.0946C130.978 25.8965 130.82 25.6107 130.82 25.024H125.82C125.82 26.6987 126.344 28.2689 127.523 29.5214L131.164 26.0946ZM130.82 25.024C130.82 24.4799 130.956 24.1307 131.158 23.8588L127.145 20.8772C126.237 22.0986 125.82 23.5201 125.82 25.024H130.82ZM131.131 23.895C131.398 23.5488 131.804 23.2216 132.456 22.9578L130.583 18.3222C129.23 18.8691 128.057 19.6939 127.172 20.841L131.131 23.895ZM132.456 22.9578C133.108 22.6946 133.932 22.532 134.975 22.532V17.532C133.417 17.532 131.937 17.7748 130.583 18.3222L132.456 22.9578ZM134.975 22.532C135.725 22.532 136.383 22.6171 136.963 22.7697L138.236 17.9343C137.194 17.6603 136.104 17.532 134.975 17.532V22.532ZM137.037 22.788C137.635 22.9259 138.216 23.149 138.785 23.4654L141.214 19.0946C140.247 18.5576 139.228 18.1621 138.162 17.916L137.037 22.788ZM138.823 23.4859C138.787 23.4667 138.695 23.4116 138.589 23.3001C138.478 23.1837 138.376 23.0307 138.306 22.8494L142.973 21.0546C142.605 20.0994 141.904 19.4627 141.176 19.0741L138.823 23.4859ZM138.37 22.9996C138.327 22.9076 138.29 22.7893 138.275 22.6521C138.26 22.5149 138.27 22.3913 138.291 22.2922L143.18 23.3398C143.357 22.5122 143.264 21.6728 142.909 20.9044L138.37 22.9996ZM138.3 22.2539C138.312 22.1989 138.332 22.1457 138.355 22.098C138.379 22.0508 138.402 22.0185 138.417 22.0009L142.286 25.1671C142.705 24.655 143.016 24.054 143.171 23.3781L138.3 22.2539ZM138.493 21.9116C138.575 21.8212 138.676 21.7377 138.793 21.6716C138.909 21.6063 139.014 21.5721 139.092 21.5555L140.139 26.4445C140.918 26.2777 141.642 25.8871 142.21 25.2564L138.493 21.9116ZM139.235 21.5291C139.429 21.4993 139.577 21.5164 139.658 21.5326C139.735 21.548 139.758 21.5639 139.72 21.5459L137.591 26.07C138.219 26.3657 139.058 26.6152 139.996 26.4709L139.235 21.5291ZM139.802 21.5864C138.992 21.1685 138.165 20.8452 137.322 20.6418L136.149 25.5022C136.544 25.5975 136.996 25.7649 137.509 26.0296L139.802 21.5864ZM137.342 20.6466C136.568 20.4531 135.788 20.348 135.008 20.348V25.348C135.337 25.348 135.709 25.3922 136.129 25.4974L137.342 20.6466ZM135.008 20.348C133.756 20.348 132.359 20.5498 131.226 21.3519L134.117 25.4321C134.047 25.4816 134.05 25.4554 134.207 25.4188C134.363 25.3823 134.621 25.348 135.008 25.348V20.348ZM131.186 21.3816C130.073 22.2037 129.436 23.4218 129.436 24.832H134.436C134.436 24.8855 134.422 25.0128 134.346 25.1618C134.27 25.3089 134.182 25.3845 134.157 25.4024L131.186 21.3816ZM129.436 24.832C129.436 25.8984 129.818 26.9216 130.616 27.7198L134.151 24.1842C134.229 24.262 134.311 24.3761 134.369 24.5195C134.425 24.6601 134.436 24.7742 134.436 24.832H129.436ZM130.616 27.7198C131.418 28.5218 132.442 28.8697 133.335 29.0236L134.184 24.0963C134.109 24.0833 134.053 24.0699 134.015 24.0591C133.978 24.0482 133.961 24.041 133.962 24.0413C133.963 24.0418 134.046 24.0786 134.151 24.1842L130.616 27.7198ZM133.293 29.0161L136.493 29.6241L137.426 24.7119L134.226 24.1039L133.293 29.0161ZM136.506 29.6265C137.61 29.8303 138.129 30.1511 138.355 30.3708L141.836 26.7812C140.654 25.6356 139.082 25.0177 137.413 24.7095L136.506 29.6265ZM138.382 30.3965C138.526 30.5315 138.684 30.7474 138.684 31.328H143.684C143.684 29.6046 143.116 27.9858 141.809 26.7555L138.382 30.3965ZM138.684 31.328C138.684 32.12 138.43 32.5875 137.876 32.9954L140.842 37.0206C142.721 35.6365 143.684 33.6506 143.684 31.328H138.684ZM137.9 32.9785C137.236 33.4559 136.18 33.82 134.495 33.82V38.82C136.864 38.82 139.051 38.3094 140.819 37.0375L137.9 32.9785ZM149.544 33.82C148.734 33.82 148.096 33.6687 147.579 33.4228L145.43 37.9372C146.705 38.5446 148.094 38.82 149.544 38.82V33.82ZM147.644 33.4549C147.107 33.1798 146.743 32.8491 146.486 32.4742L142.363 35.3018C143.13 36.4202 144.153 37.2842 145.365 37.9051L147.644 33.4549ZM146.514 32.5151C146.305 32.1974 146.189 31.8368 146.189 31.36H141.189C141.189 32.7606 141.563 34.0853 142.335 35.2609L146.514 32.5151ZM146.189 31.36C146.189 30.6407 146.367 30.3958 146.44 30.3157L142.729 26.9643C141.607 28.2068 141.189 29.7753 141.189 31.36H146.189ZM146.466 30.2863C146.573 30.1634 146.96 29.8481 148.039 29.6085L146.954 24.7275C145.345 25.0852 143.79 25.7513 142.703 26.9937L146.466 30.2863ZM148.039 29.6085C149.128 29.3664 150.725 29.22 152.904 29.22V24.22C150.561 24.22 148.553 24.3722 146.954 24.7275L148.039 29.6085ZM152.904 29.22H154.505V24.22H152.904V29.22ZM152.005 26.72V29.024H157.005V26.72H152.005ZM154.505 26.524H152.936V31.524H154.505V26.524ZM152.936 26.524C151.554 26.524 150.347 26.5895 149.368 26.7482L150.169 31.6838C150.768 31.5865 151.673 31.524 152.936 31.524V26.524ZM149.368 26.7482C148.398 26.9056 147.243 27.239 146.363 28.0642L149.782 31.7118C149.666 31.8205 149.6 31.8335 149.673 31.8042C149.745 31.7757 149.9 31.7273 150.169 31.6838L149.368 26.7482ZM146.367 28.0604C145.412 28.9512 145.092 30.1172 145.092 31.168H150.092C150.092 31.1273 150.099 31.1889 150.053 31.3098C150.004 31.4426 149.912 31.5907 149.778 31.7156L146.367 28.0604ZM145.092 31.168C145.092 32.5274 145.6 33.7897 146.643 34.7422L150.014 31.0498C150.013 31.0483 150.022 31.057 150.037 31.0769C150.051 31.0972 150.065 31.1219 150.077 31.1483C150.088 31.1746 150.092 31.1938 150.094 31.2014C150.095 31.2083 150.092 31.1986 150.092 31.168H145.092ZM146.643 34.7422C147.724 35.7296 149.08 36.068 150.376 36.068V31.068C150.148 31.068 150.03 31.0384 149.988 31.0246C149.955 31.0138 149.978 31.0164 150.014 31.0498L146.643 34.7422ZM150.376 36.068C151.473 36.068 152.548 35.8144 153.519 35.2317L150.946 30.9443C150.851 31.0016 150.688 31.068 150.376 31.068V36.068ZM153.543 35.2171C154.467 34.6482 155.204 33.8725 155.73 32.9261L151.359 30.4979C151.245 30.7035 151.107 30.8451 150.922 30.9589L153.543 35.2171ZM155.73 32.9261C156.282 31.9316 156.525 30.8421 156.525 29.728H151.525C151.525 30.1072 151.447 30.3404 151.359 30.4979L155.73 32.9261ZM156.525 29.728V26.048H151.525V29.728H156.525ZM156.525 26.048C156.525 24.7049 156.243 23.1309 155.088 21.9762L151.553 25.5118C151.443 25.4021 151.435 25.3286 151.458 25.4026C151.483 25.4867 151.525 25.6863 151.525 26.048H156.525ZM155.088 21.9762C153.919 20.807 152.305 20.54 150.952 20.54V25.54C151.344 25.54 151.565 25.5829 151.664 25.6123C151.755 25.6393 151.675 25.6337 151.553 25.5118L155.088 21.9762ZM150.952 20.54C150.135 20.54 149.292 20.6383 148.432 20.8154L149.441 25.7126C150.031 25.591 150.532 25.54 150.952 25.54V20.54ZM148.418 20.8184C147.5 21.013 146.577 21.3357 145.653 21.7603L147.74 26.3037C148.395 26.0029 148.965 25.8136 149.455 25.7096L148.418 20.8184ZM145.626 21.7727C145.566 21.8013 145.826 21.6626 146.253 21.7764L144.964 26.6076C146.031 26.8921 147.017 26.6467 147.767 26.2913L145.626 21.7727ZM146.295 21.7882C146.408 21.8203 146.543 21.8794 146.679 21.9781C146.815 22.077 146.916 22.1901 146.985 22.2932L142.824 25.0668C143.328 25.8215 144.059 26.3492 144.922 26.5958L146.295 21.7882ZM147.034 22.3698C147.062 22.416 147.093 22.4808 147.116 22.5612C147.139 22.6419 147.148 22.7188 147.148 22.784H142.148C142.148 23.5752 142.367 24.3262 142.775 24.9902L147.034 22.3698ZM147.148 22.784C147.148 22.8493 147.139 22.9155 147.122 22.9768C147.106 23.0371 147.086 23.0775 147.075 23.0963L142.734 20.6157C142.364 21.2628 142.148 21.9965 142.148 22.784H147.148ZM147.11 23.0325C147.036 23.1727 146.935 23.2909 146.828 23.3781C146.726 23.461 146.648 23.4923 146.633 23.4979L144.904 18.8061C144.039 19.1248 143.211 19.7184 142.699 20.6795L147.11 23.0325ZM146.723 23.4627C147.572 23.1118 148.348 22.8781 149.052 22.7438L148.117 17.8322C147.029 18.0392 145.927 18.3815 144.814 18.8413L146.723 23.4627ZM149.042 22.7458C149.844 22.5966 150.52 22.532 151.081 22.532V17.532C150.148 17.532 149.16 17.6381 148.127 17.8302L149.042 22.7458ZM151.081 22.532C152.387 22.532 153.242 22.7353 153.778 22.9913L155.935 18.4807C154.508 17.798 152.846 17.532 151.081 17.532V22.532ZM153.797 23.0002C154.311 23.2409 154.64 23.5665 154.87 24.0178L159.323 21.7422C158.572 20.2735 157.408 19.1698 155.916 18.4718L153.797 23.0002ZM154.881 24.0381C155.124 24.5032 155.333 25.2826 155.333 26.528H160.333C160.333 24.7868 160.05 23.1341 159.312 21.7219L154.881 24.0381ZM155.333 26.528V34.208H160.333V26.528H155.333ZM155.333 34.208C155.333 34.3422 155.316 34.3762 155.326 34.3423C155.332 34.3237 155.345 34.2879 155.371 34.2413C155.397 34.194 155.432 34.1418 155.478 34.0899L159.227 37.3981C160.078 36.4342 160.333 35.2535 160.333 34.208H155.333ZM155.529 34.0341C155.645 33.91 155.781 33.8279 155.897 33.7849C156 33.7464 156.041 33.756 155.977 33.756V38.756C157.062 38.756 158.261 38.4302 159.176 37.4539L155.529 34.0341ZM155.977 33.756C155.914 33.756 155.944 33.7469 156.031 33.7785C156.127 33.8136 156.24 33.8796 156.336 33.9762L152.801 37.5118C153.717 38.428 154.883 38.756 155.977 38.756V33.756ZM156.443 34.0899C156.489 34.1418 156.524 34.194 156.55 34.2413C156.576 34.2879 156.589 34.3237 156.595 34.3423C156.605 34.3762 156.589 34.3422 156.589 34.208H151.589C151.589 35.2535 151.843 36.4342 152.694 37.3981L156.443 34.0899ZM156.589 34.208V32.672H151.589V34.208H156.589ZM154.089 35.172H154.344V30.172H154.089V35.172ZM151.893 32.1817C151.817 32.5602 151.681 32.8337 151.504 33.0532L155.393 36.1948C156.112 35.3049 156.573 34.2771 156.796 33.1623L151.893 32.1817ZM151.496 33.0623C151.332 33.2679 151.112 33.4471 150.788 33.5936L152.845 38.1504C153.844 37.6996 154.712 37.0467 155.401 36.1857L151.496 33.0623ZM150.788 33.5936C150.501 33.7228 150.105 33.82 149.544 33.82V38.82C150.691 38.82 151.809 38.6186 152.845 38.1504L150.788 33.5936ZM163.941 33.756C163.82 33.756 163.802 33.74 163.851 33.7563C163.877 33.7649 163.918 33.7814 163.967 33.8105C164.018 33.8398 164.069 33.8776 164.118 33.9235L160.691 37.5645C161.653 38.4697 162.856 38.756 163.941 38.756V33.756ZM164.225 34.0306C164.271 34.0793 164.309 34.1309 164.338 34.1811C164.367 34.2307 164.384 34.2716 164.392 34.2974C164.409 34.3463 164.393 34.3283 164.393 34.208H159.393C159.393 35.2921 159.679 36.4956 160.584 37.4574L164.225 34.0306ZM164.393 34.208V22.112H159.393V34.208H164.393ZM164.393 22.112C164.393 21.9901 164.409 21.9816 164.387 22.0456C164.361 22.1216 164.298 22.2503 164.172 22.3758L160.637 18.8402C159.675 19.8022 159.393 21.0386 159.393 22.112H164.393ZM164.172 22.3758C164.066 22.4822 163.948 22.5475 163.858 22.5795C163.778 22.6078 163.761 22.596 163.844 22.596V17.596C162.758 17.596 161.569 17.9078 160.637 18.8402L164.172 22.3758ZM163.844 22.596C163.928 22.596 163.911 22.6078 163.831 22.5795C163.741 22.5475 163.623 22.4822 163.517 22.3758L167.052 18.8402C166.12 17.9078 164.931 17.596 163.844 17.596V22.596ZM163.517 22.3758C163.391 22.2503 163.328 22.1216 163.302 22.0456C163.28 21.9816 163.296 21.9901 163.296 22.112H168.296C168.296 21.0386 168.014 19.8022 167.052 18.8402L163.517 22.3758ZM163.296 22.112V24.128H168.296V22.112H163.296ZM165.796 21.628H165.477V26.628H165.796V21.628ZM167.911 24.6961C168.104 23.8673 168.424 23.4524 168.744 23.2101L165.729 19.2219C164.3 20.3023 163.446 21.8287 163.042 23.5599L167.911 24.6961ZM168.744 23.2101C169.141 22.9104 169.811 22.6223 170.944 22.5223L170.505 17.5417C168.736 17.6977 167.082 18.1989 165.729 19.2219L168.744 23.2101ZM170.962 22.5207C170.911 22.5256 170.751 22.5321 170.534 22.4597C170.303 22.3826 170.097 22.2455 169.943 22.0797L173.618 18.6883C172.727 17.7237 171.545 17.4426 170.487 17.5433L170.962 22.5207ZM170.085 22.221C169.907 22.0572 169.82 21.891 169.783 21.7979C169.75 21.7143 169.761 21.6982 169.768 21.7917L174.753 21.4083C174.685 20.5178 174.396 19.396 173.476 18.547L170.085 22.221ZM169.768 21.7994C169.77 21.8142 169.762 21.7456 169.797 21.6257C169.835 21.4976 169.904 21.3697 169.995 21.2657L173.758 24.5583C174.58 23.6185 174.839 22.4758 174.753 21.4006L169.768 21.7994ZM169.987 21.2747C170.11 21.1328 170.24 21.0534 170.323 21.0162C170.396 20.9832 170.409 20.9935 170.32 21.0033L170.873 25.9727C171.841 25.8651 172.945 25.4963 173.766 24.5493L169.987 21.2747ZM170.37 20.9983L169.666 21.0623L170.119 26.0417L170.823 25.9777L170.37 20.9983ZM169.648 21.064C167.978 21.2282 166.358 21.7845 165.153 23.0285L168.744 26.5075C168.862 26.3862 169.204 26.1318 170.137 26.04L169.648 21.064ZM165.181 23.0002C163.922 24.2591 163.456 25.9124 163.456 27.584H168.456C168.456 26.8236 168.652 26.5995 168.716 26.5358L165.181 23.0002ZM163.456 27.584V34.208H168.456V27.584H163.456ZM163.456 34.208C163.456 34.3283 163.44 34.3463 163.457 34.2974C163.465 34.2716 163.482 34.2307 163.511 34.1811C163.54 34.1309 163.578 34.0793 163.624 34.0306L167.265 37.4574C168.17 36.4956 168.456 35.2921 168.456 34.208H163.456ZM163.677 33.9762C163.802 33.8508 163.931 33.7872 164.007 33.7614C164.071 33.7396 164.062 33.756 163.941 33.756V38.756C165.014 38.756 166.25 38.4737 167.212 37.5118L163.677 33.9762Z" fill="black" mask="url(#path-1-outside-1_255_2)"/>
</svg>
